<?xml version="1.0" standalone="no"?>
<!DOCTYPE svg PUBLIC "-//W3C//DTD SVG 1.1//EN" "http://www.w3.org/Graphics/SVG/1.1/DTD/svg11.dtd" >
<svg xmlns="http://www.w3.org/2000/svg" xmlns:xlink="http://www.w3.org/1999/xlink" version="1.1">
<metadata></metadata>
<defs>
<font id="after_shokregular" horiz-adv-x="2129" >
<font-face units-per-em="2048" ascent="1638" descent="-410" />
<missing-glyph horiz-adv-x="1138" />
<glyph horiz-adv-x="0" />
<glyph unicode="&#xd;" horiz-adv-x="1138" />
<glyph unicode=" "  horiz-adv-x="1138" />
<glyph unicode="&#x09;" horiz-adv-x="1138" />
<glyph unicode="&#xa0;" horiz-adv-x="1138" />
<glyph unicode="!" horiz-adv-x="901" d="M256 1370q35 39 119 39q16 0 47 -2t45 -2q106 0 125 78l-336 73q57 39 131 39q47 0 137 -21.5t131 -21.5q25 0 47 4l74 -223q18 -33 19 -59q0 -63 -104.5 -112.5t-104.5 -61.5q0 -27 116 -64q18 -49 19 -86q0 -63 -66 -98q-12 -6 -133 -45q-86 -27 -116 -68 q37 -41 116 -41q18 0 54 3.5t53 3.5q20 0 37 -3q2 -8 2 -14q0 -14 -39 -61q-45 37 -113 37t-110 -37q-113 244 -113 479q0 127 37 227q-47 41 -60 41q-6 0 -14 -4zM293 256v111q31 -29 59 -29q25 0 62 24q47 35 65 41l-73 76l333 -39q-47 -86 -188 -127q-129 -29 -258 -57z M369 33l73 73l-36 37q18 59 77 60q61 0 146 -60l37 37l73 -74q-68 -25 -135 -49q-94 -33 -168 -32q-35 0 -67 8z" />
<glyph unicode="#" horiz-adv-x="1067" d="M125 1020q0 35 32.5 52.5t65.5 33.5q51 0 103 -2q82 0 114 33q-45 37 -61 30q16 43 16 62q0 20 -16 63q-6 0 98 0q61 2 86 -32l-92 -62q39 0 73 -52t66 -52q20 0 47 12q33 27 33 86q-2 104 -2 100l184 -32q-10 -6 -63 -68q-37 -47 -90 -55q39 -31 119 -31h35.5h33.5 q82 0 121 -31q-6 -14 -35 -55q-20 -31 -20 -51q0 -25 24 -49q4 0 -86 -2q-51 0 -69 34q16 -43 16 -75q0 -57 -59 -84q-55 -18 -112.5 -39t-57.5 -64q0 -31 28 -80q33 2 102.5 28t98.5 26q61 0 78 -84q-47 37 -84 36q-33 0 -92.5 -50t-108.5 -50q-12 0 -24 2q0 -78 30 -92 q43 37 62 31q25 -12 31 -41v-51q-18 -6 -62 30q-35 -14 -33 -55q0 -72 2 -70l-94 33q57 37 58 90q0 31 -27 94.5t-31 92.5q-10 39 -80 53q-82 18 -104 41q-23 -31 -23 -53q0 -23 43 -70t41 -94q-20 -4 -39 -4q-82 0 -110 73q-16 70 -35 138q-25 74 -96 73q-12 0 -29 -2 l279 62q-63 10 -82 57q-39 94 -41 98q-20 33 -70 33q-90 -2 -86 -2q-6 20 -6 37zM471 766q39 23 78 22q37 1 78 -22q-20 45 -40 88t-65 43q-20 0 -51 -8q35 -16 35 -62q0 -45 -35 -61zM719 1446h184l-153 -62z" />
<glyph unicode="$" horiz-adv-x="1249" d="M86 489v62q70 29 139 29q201 0 324 -183q35 37 35 115q-2 139 -2 131q-41 39 -119 59q-66 16 -129 35q6 16 -31 62q-113 41 -186 184q68 20 135 39q92 25 160 25q80 0 137 -31q35 25 35 84q-2 104 -2 100q-12 27 -41 31h-54q0 -125 -77 -125q-35 0 -134 37 q-90 35 -129 26h-30q16 53 45 78q14 12 80 45l-33 31q115 51 227 100q141 78 176 179h123v-52q-4 -29 -30 -41l61 -61q41 35 84 35q47 0 115 -51q88 -68 110 -76q31 -8 31 -74v-15.5v-17.5q0 -86 55 -86q16 0 37 6l-31 -92l-123 185q-37 -43 -30 -62q-35 8 -88 8 q-117 0 -191 -39q-6 -33 -6 -63q0 -152 129 -215q23 6 41 6q41 0 92 -27q68 -37 84 -41q-33 -39 -33 -49q0 -45 54 -45q82 0 71 2q4 -20 4 -43q0 -61 -24 -102q-27 -47 -72 -41q6 18 -31 61q-31 -14 -30 -92q23 -31 92.5 -32t91.5 -29v-92q-16 2 -31 2q-55 0 -71 -76 q-18 -92 -52 -113q-100 -47 -266 -59q-47 -2 -260 -2q-10 -4 -20 -4q-41 0 -94.5 47t-69.5 49q-4 0 86 2q49 0 67 -33q18 33 70 33q90 -2 86 -2q25 -49 82 -59q51 0 102 -2l125 122q-92 4 -135 17q-86 20 -112 78q-16 -6 -72 -41q-45 -27 -78 -27q-18 0 -37 4q0 43 -39 66 q-45 25 -53 59q-49 -31 -115 -31q-133 0 -225 92zM643 -37q16 96 62 94v-94h-62zM766 367h61v30q31 27 31 66t-27.5 74.5t-64.5 44.5v-215zM858 1262l186 61l-30 -31q-37 -4 -156 31v-61zM891 1077v62q116 -37 153 -31q-4 -35 -59 -33q-98 0 -94 2z" />
<glyph unicode="%" horiz-adv-x="2070" d="M66 1178q33 8 86 59q43 39 100 33l31 -31q37 43 30 61q-18 33 -69 33q-88 0 -84 -2q23 12 24 78q0 55 29 55q16 0 39 -8q-6 -18 31 -63l92 63q-6 -18 31 -63q23 10 34 43q12 25 31 24q10 0 29 -4h123q-6 -18 30 -63q53 18 95 18q119 0 122 -141h31l-92 -92q43 -37 61 -31 q6 -18 -30 -64q33 -12 32 -53q-2 -74 -2 -69q-23 -59 -120 -87q-90 -25 -97 -100q8 2 -145 2q-88 2 -133 -33q-43 37 -62 31l62 64q-43 37 -62 30q16 10 74 78q43 53 96 53q20 0 47 -8q31 -123 154 -153q37 43 31 61q-61 8 -82 57q-39 94 -41 97q45 37 45 82q0 59 -72 131 q-55 55 -129 96q-39 -43 -72.5 -135t-60.5 -123q-47 -51 -143 -51q-25 -8 -39 -9q-29 0 -29 56q-2 63 -26 78zM127 1147q18 33 39 33q14 0 39.5 -18.5t38.5 -18.5q21 0 39 35q-20 31 -50 30q-25 0 -61 -28q-43 -33 -45 -33zM561 1548h92v-30zM610 332q0 43 56 76 q70 41 79 59l31 31q-43 37 -61 30q72 70 157 250q96 203 150 273q103 132 250 157l-123 -125q25 -10 29 -39q2 -4 2 -53q-6 -6 -62 -37q-41 -23 -41 -53q0 -14 8 -33q-16 6 -61 -30l31 -31q-12 -16 -71.5 -32.5t-82.5 -35.5q-39 -29 -31 -88q-6 -18 31 -61q43 37 62 31 q10 -59 -45 -86q-55 -14 -111 -29q-61 -18 -62 -55q0 -31 31 -78q37 45 33 61h31q4 -14 4 -26q0 -35 -49 -60q-39 -18 -80 -37l-31 31q-37 -43 -31 -61h-30q-12 29 -13 51zM1085 467v61q18 -6 64 31q-45 37 -64 31v31h64q-6 -18 31 -62q41 0 64.5 43t58.5 49q-2 43 -36 68.5 t-75 25.5q-47 0 -76 -32q-4 18 33 61q14 6 33 6q74 0 121 -67q14 -29 36 -29q12 0 42 15.5t44 13.5q-45 -6 -64.5 -94.5t-88.5 -90.5q41 -12 131 -71q78 -53 125 -54q57 0 114 64q-4 8 -4 27q0 12 4.5 53t4.5 63q0 94 -66 103h-92q4 18 -31 61h-94v53q-4 29 -31 41h-30 q-4 16 -5 27q0 20 28 31.5t38 34.5q37 -31 94 -31q55 0 92 31q-2 4 -2 -70q0 -41 33 -53q31 33 100 32q121 -2 117 -2q12 -59 74 -174q53 -98 53 -164q0 -59 -35 -127q-25 -31 -88 -30q-12 0 -35 2h-34q-82 0 -91 -64l-61 62q-4 -20 -33.5 -64.5t-29.5 -68.5q0 -29 32 -52 q-119 -37 -155 -30q-37 43 -31 61q18 6 61 -31l33 31q-10 92 -141 92q-18 0 -53 -2h-52q-86 0 -86 51q0 27 23 74q-45 37 -64 33zM1272 1518q57 63 129 63q12 0 24 -2q-45 -68 -120 -68q-16 0 -33 7zM1704 219v92q96 -16 94 -61q-16 -31 -94 -31zM1735 774q25 -12 24 -47 q0 -16 -5 -39.5t-5 -25.5q4 2 16 20h33z" />
<glyph unicode="&#x26;" horiz-adv-x="1818" d="M246 420v63q18 -6 63 31q-59 23 -59 59q0 25 43 79.5t47 76.5q20 -2 40.5 48t37.5 50q18 0 45 -36q39 59 39 127q0 20 -6 75q-4 47 -2 76h-62v156q-4 -2 70 -2q41 0 53 32v62h156q-6 -18 30 -62q18 -6 62 31v62h31v-93q-16 6 -62 -30q-4 -20 -4 -41q0 -43 23 -92 q23 -41 43 -84q18 -2 32 -2q80 0 123 63q18 -57 45 -57q18 0 69.5 46t82.5 46q10 0 18 -4q-29 63 -138.5 65t-139.5 60l155 61q10 68 -37 100q-23 14 -100 39q-63 18 -80 48l279 -33q-6 -16 31 -62q20 8 34 8q27 0 37 -38q16 -55 23 -62h-54q-29 -4 -38 -27.5t-9 -37.5 q0 -43 66 -54q80 -12 96 -34v-64q-39 -25 -61 -100q-31 -104 -43 -127q-37 -66 -113 -82q-55 -10 -114.5 -22.5t-102.5 -39.5q61 -55 232 -57t233 -66q25 12 31 41v52q35 -35 59 -35q25 0 57 53q37 61 68 74h-31v31h31q6 -18 6 -35q0 -90 -98 -119l61 -92q-61 0 -61 -64v-19 v-20q0 -72 -62 -84q35 -35 152 -86q98 -43 127 -98q-23 -8 -45 -8q-29 0 -72 14.5t-63 14.5q-33 0 -68 -21q6 16 -31 62q4 0 -69 2q-41 0 -54 -33v-31h-30q-6 16 30 62q-14 31 -36 30q-12 0 -42 -16.5t-46 -13.5q-129 63 -312 63q-129 0 -244 -33q43 -35 132 -33 q154 0 145 3v-62q4 -2 -68 -2q-43 -2 -55 33q-23 -47 -61 -33q-31 16 -62 33q-29 6 -31 -64l-63 64q-37 -45 -31 -64h-61l92 95q-25 33 -86 32q-104 -2 -98 -2q6 16 -31 62q-20 -8 -35 -9q-27 0 -39 39q-14 55 -20 62zM672 524q0 -18 8 -41q16 -31 59 -51q49 -27 64 -43 q-6 47 48 68.5t54 50.5q0 14 -10 37q-33 -2 -68 33q-27 31 -55 59q-14 -29 -63 -57q-37 -25 -37 -56z" />
<glyph unicode="'" horiz-adv-x="768" d="M180 956l113 187q53 4 74 -113l-37 -37q39 -47 39 -59q0 -8 -2 -14zM180 1589h113q-4 -8 -4 -14q0 -12 41 -59q31 39 98 38q16 0 47 -2t47 -2q17 0 31 2q-2 -18 -2 -43q0 -18 2 -59t2 -61q0 -90 -39 -136q37 -23 37 -63q0 -25 -14 -64q-12 -29 -23 -59q-221 135 -299 299 q16 -6 31 -6q33 0 62.5 26.5t56.5 53.5zM367 1663h110v-37z" />
<glyph unicode="(" horiz-adv-x="681" d="M100 553q2 70 2 65h117q-6 -16 29 -57q18 -6 59 29q0 -4 2 63q0 41 -30 54h-60l29 86l-146 59l117 57q-14 12 -35 74q-14 51 -47 51q-14 0 -35 -8q10 31 22.5 63.5t37.5 53.5q-31 14 -31 88q12 25 39 29h49q12 -23 31 -23q16 0 45 20q41 31 41 33q-14 4 -51 31 q-29 20 -49 20q-23 0 -46 -22l29 145q66 -88 139 -88q37 0 66 29l29 31q-10 25 -39 28h-49q6 16 -29 58h-88l31 59q31 -78 75 -78q23 0 80.5 29t91.5 29q23 0 43 -9q2 -68 -30 -151q-29 -70 -58 -141l31 -29q-47 -102 -47 -103q-31 -43 -100 -43q-31 -39 -31 -47 q0 -39 47 -41h72v-88q-16 6 -58 -28q63 -41 64 -138q0 -76 -35 -153q-16 6 -59 -29l90 -86q53 -51 57 -119l-147 -88q20 -29 53 -28q4 0 94 28q6 -25 -16.5 -46t-42.5 -42l116 -57q-20 -59 -57 -60q-23 0 -81 33t-93 33q-16 0 -31 -6l88 57q-35 51 -133 68q-86 14 -100 80 l57 -60q25 12 29 39v49q-10 49 -84 54q-66 4 -62 63l29 29q-31 12 -31 51z" />
<glyph unicode=")" horiz-adv-x="659" d="M141 307q14 27 39 105q20 68 47 100q-29 14 -28 88l176 117l-148 86q72 90 176 117q-12 25 -38 28q-2 2 -50 2l88 86q-16 6 -79 39q-49 25 -86 25q-18 0 -39 -4q0 -4 -2 65q0 39 30 51q-4 20 -32.5 24.5t-28.5 16.5q0 6 4 17v116q18 -4 37 -4q41 0 88 23q39 20 80 41 l-60 57l146 -28l-29 -146l-57 57q-25 -20 -60 -116q20 -4 95 -37q55 -27 96 -27q20 0 43 6q0 4 -2 -82q0 -47 31 -63l-89 -59q8 -41 53.5 -81t45.5 -75q0 -20 -10 -49h-89v49q-4 29 -28 39q-16 6 -58 -29q-4 -18 -4 -33q0 -49 77 -69.5t77 -69.5q0 -14 -4 -33l-205 -57 q31 -33 96 -31q115 0 109 2v-88q-55 -27 -129 -47q-98 -29 -133 -41q23 -29 78 -28h24.5h22.5q55 0 77 -29q-2 -23 -73.5 -32t-71.5 -36q0 -18 31 -49q10 25 37 29h49q-43 -63 -115 -64q-16 0 -31 4q-18 49 -69 84t-105 33zM170 45q14 61 96 61q12 0 37 -2h35q65 0 94 29 q-37 -4 -91 -63.5t-93 -59.5q-35 0 -78 35z" />
<glyph unicode="*" horiz-adv-x="1157" d="M199 1282q0 37 37 90q33 10 67 10q47 0 126 -28.5t116 -28.5q33 0 63 16q190 -37 246 -30q10 10 37 65q16 33 49 33q16 0 39 -6l-61 -62l92 -63q-39 -43 -140.5 -75t-138.5 -79l187 -123q-68 -47 -68 -122q0 -16 4 -33q-18 -14 -39 -15q-43 0 -117.5 82t-99.5 82 q-35 0 -53 -88q-51 -61 -127 -61q-49 0 -88 31q90 10 90 49q0 18 -26.5 64t-26.5 71q0 39 55 63q-23 20 -137 72q-86 37 -86 86zM360 1247l123 -30v30h-123z" />
<glyph unicode="," horiz-adv-x="768" d="M127 -90q35 18 82 18q35 0 97.5 -12t86.5 -12q74 0 74 94q0 27 -4 61q-70 14 -139 27q-78 14 -160 10q-29 39 -35 105q-2 18 -2 118q41 -29 84 -28q66 0 102 65q-18 37 -82 37h-16h-14q-80 0 -74 76q51 76 145 76q20 0 41 -2q27 -10 47 -72q18 -49 66 -41q37 12 37 66 q0 10 -2 29.5t-2 27.5q0 41 28 41q18 0 50 -14q-4 -25 -40 -78t-36 -82q0 -35 39 -64q47 39 59 39q8 0 12 -4t4 -12q0 -12 -38 -60q47 -39 61 -38q6 0 12 2v-113q-6 2 -14 2q-25 0 -51 -29q-39 -43 -45 -47q14 -29 49 -35q10 -2 61 -2q-27 -61 -148.5 -159.5t-148.5 -175.5 q-12 2 -26 2q-12 0 -40 -2.5t-40 -2.5q-57 0 -80 39v150z" />
<glyph unicode="." horiz-adv-x="720" d="M154 406q16 59 122 88q119 35 138 61q-2 -8 -2 -14q0 -12 39 -60l186 74v-74q-8 2 -14 2q-12 0 -60 -41q4 -35 33 -69.5t29 -48.5q0 -27 -62 -66q-18 -12 -37 -12q-23 0 -56.5 25.5t-47.5 25.5q-23 0 -45 -39v-76h-74q2 8 2 15q0 12 -41 61q-47 -41 -59 -41q-6 0 -15 2 q31 41 31 84q0 63 -67 103zM262 379q0 -16 41 -47q-6 14 -6 28q0 23 22.5 59.5t20.5 61.5q2 -10 2 -18q0 -31 -40 -51.5t-40 -32.5zM451 182h186v-73h-121q-70 4 -65 73z" />
<glyph unicode="0" horiz-adv-x="1904" d="M276 870q18 -8 37 -8q27 0 73 26.5t75 26.5q18 0 39 -8q4 -8 4 -14q0 -12 -41 -59q4 -68 74 -101q63 -25 125 -49q66 -37 61 -113q-6 4 -14 4q-12 0 -60 -40l74 -111q41 47 41 59q0 6 -4 15q63 -49 125 -99q74 -53 135 -53q55 0 113 41l36 37q-6 31 -6 84q0 27 6 141 q4 94 0 146q-6 115 125 114q16 0 48 -2t44 -2q68 0 68 39q0 27 -24 74q-23 10 -46 10q-31 0 -80 -21.5t-71 -21.5q-35 0 -64 33l113 112q-14 31 -49 37h-64l224 74q-14 41 -64 41q-10 0 -31.5 -3t-31.5 -3q-12 0 -21 2q-10 78 -108 78q-12 0 -41 -2h-43q-76 0 -107 37 q-8 -147 -125 -201q-115 -31 -227 -60q-133 -41 -168 -149q-8 2 -20 2q-10 0 -33 -2t-33 -2q-47 0 -64 39q27 109 130 207q84 84 169 166q-14 31 -49 36h-63q76 92 211 154q129 59 272 70q55 -78 189 -78q18 0 55 2t55 2q98 0 148 -37q0 -23 -61.5 -47.5t-61.5 -58.5 q0 -18 12 -43q18 -39 45 -39t63.5 37.5t39.5 37.5q2 -8 2 -20q0 -10 -2.5 -31.5t-2.5 -34.5q0 -47 41 -63l111 39q4 -41 41 -135q35 -86 35 -133q0 -57 -39 -105q-39 -12 -78 -26q-45 -16 -70 -48q20 -41 80 -41q12 0 39 3.5t39 3.5q16 0 27 -2v-150q-25 -16 -58 -16 q-37 0 -103.5 26.5t-86.5 26.5q-53 0 -49 -111q0 -2 53 -41q35 -27 57 -26q25 0 39 28v39h148q-41 -246 -185 -409q-45 -4 -92 -4q-174 0 -475 71q-313 76 -475 80q31 23 37 113q4 74 76 74q-16 31 -50 36h-63q-39 -47 -39 -59q0 -6 2 -14h-74zM612 1055q6 4 15 4 q12 0 59 -41q2 -6 2 -14q0 -12 -39 -60zM760 88q10 39 71 39q8 0 29 -2h29q72 0 94 39q4 -8 4 -14q0 -14 -41 -62q41 -47 41 -59q0 -9 -4 -15h-111q2 6 2 15q0 12 -38 59h-76zM1059 125h147v-37z" />
<glyph unicode="1" horiz-adv-x="1392" d="M301 1106q0 25 6 49q8 2 15 2q25 0 51 -29q39 -41 45 -47q-6 31 -6 56q0 96 118 96q20 0 58.5 -3t52.5 -3q74 0 74 45q0 37 -39 106q-2 8 -2 19q0 39 60.5 64.5t60.5 41.5q0 23 -45 60q16 -2 36 -2q16 0 52 2t53 2q80 0 117 -39q14 31 49 37h61l-110 -74q41 -20 41 -47 q0 -14 -21.5 -46t-21.5 -46q0 -25 38 -45q47 39 62 38q6 0 12 -2q4 -72 -37 -94q-16 -10 -90 -18q-63 -6 -94 -37q31 -29 94 -35q74 -10 90 -18q41 -23 37 -95q-35 -41 -35 -83q0 -29 22.5 -91.5t22.5 -99.5q0 -29 -10 -57q-20 6 -41 6q-41 0 -92 -31q-70 -43 -88 -49 q74 -29 145 -57q76 -41 76 -127q0 -2 -37 -39t-37 -64t37 -45h37q6 -14 6 -31q0 -25 -19.5 -67.5t-19.5 -63.5q0 -32 33 -59h-147q-10 78 -107 78q-23 0 -71 -5t-70 -5q-27 0 -47 6q-29 68 -29 123q0 145 176 172q8 2 15 2q12 0 59 -39q45 37 45 57q0 18 -60.5 44t-60.5 65 q0 8 2 18q-25 -39 -51 -39q-25 0 -65 35q-47 37 -68 41q41 25 41 55q0 18 -22.5 55t-22.5 58q0 29 41 53q-31 39 -98 39q-16 0 -47 -2t-46 -2q-16 0 -30 2q2 8 2 14q0 12 -39 60q-39 -47 -39 -60q0 -6 2 -14q-25 45 -49 88q-31 66 -31 121zM639 49q39 41 111 41 q71 0 110 -41q-4 -41 -67 -41q-14 0 -44 2t-44 2q-16 0 -29 -2z" />
<glyph unicode="2" horiz-adv-x="1753" d="M231 82l150 74q-55 57 -55 98q0 37 55 123q6 4 43 47q27 29 51 29q8 0 17 -2q20 -4 47 -5q51 0 179 25t202 25q45 0 88 -9q4 -23 4 123q0 98 -41 135q-39 -47 -39 -59q0 -6 2 -14h-74q23 59 133 172q102 102 125 198q-29 14 -35 48q-2 10 -2 63l37 37l-74 74 q-41 -53 -151 -74q-96 -18 -191 -37q-102 -33 -137 -111l111 -112q-51 -41 -172 -41q-123 0 -199 41l223 112q-47 39 -61 39q-6 0 -12 -2v111q8 2 20 2q10 0 31.5 -2t32.5 -2q47 0 63 39l-74 73q-16 -39 -63 -38q-10 0 -31.5 2t-32.5 2q-12 0 -20 -2q76 -12 92 55 q10 66 21 129q20 74 108 74h664q4 -63 71 -95q57 -27 113 -53l-184 -110q27 -76 149 -76h25.5h25.5q109 0 109 -74q0 -29 -12 -72q12 -37 12 -67q0 -66 -68 -105q-29 -18 -131 -51q43 -41 43 -74q0 -37 -65 -77q-76 -45 -88 -70q-82 -4 -165 -92t-167 -92v-37 q66 -39 186 -39q27 0 82 2t82 2q31 0 55 -2q4 -18 -15 -54t-19 -50q0 -27 34 -43q53 0 64 2q33 6 47 34l-37 111h150v-74q-29 -16 -93 -162q-53 -127 -122 -127q-35 0 -82 31q-256 -45 -451 -45q-264 0 -397 82q-12 2 -27 2q-14 0 -40.5 -2t-39.5 -2q-57 0 -80 39zM877 1382 q0 -39 57 -82q6 14 6 29q0 20 -23.5 57t-19.5 62q-20 -39 -20 -66z" />
<glyph unicode="3" horiz-adv-x="1720" d="M150 457q0 78 79 86q29 -6 123 0q82 6 115 -11q49 -25 39 -108l39 -39q43 49 43 64q0 6 -2 14q25 12 43 12q35 0 49 -51q18 -70 24 -78q-8 -4 -20 -4t-34.5 3t-35.5 3q-51 0 -67 -43q51 -43 139 -43t137 43q-2 -8 -2 -14q0 -14 41 -64q164 172 316 197q-51 43 -103 88 q-68 66 -67 129q0 29 12 59l41 39q-123 12 -123 183q0 27 4 55q127 10 119 197q-8 4 -49 49q-27 31 -54 30q-8 0 -16 -2q-2 8 -2 17q0 12 41 63q-59 43 -188 70q-166 35 -199 49q-98 37 -125 117h180q117 4 135 80q2 -8 2 -17q0 -12 -41 -63q66 -27 130.5 -52.5t113.5 -25.5 q66 0 150 39l356 -158q-23 -31 -40 -84t-32 -72q-27 -33 -88 -40q-49 41 -63 40q-6 0 -15 -2l-38 -38l77 -80q-12 -27 -57 -80q-35 -39 -35 -66q0 -37 53 -90h158v-80q-10 -2 -22 -2q-10 0 -34 3t-34 3q-51 0 -68 -43l39 -118q-16 6 -32 6q-33 0 -65 -29t-60 -55 q63 -53 155 -54q31 0 87.5 7.5t82.5 7.5q97 0 148 -80q-244 -78 -244 -205q0 -53 47 -110q6 -39 -21.5 -60.5t-68.5 -21.5q-14 0 -29 2q-109 72 -211 71q-68 0 -204 -46t-226 -46q-72 0 -147 21q2 8 2 16q0 12 -41 64q-16 -31 -51 -37q-12 -2 -68 -2q-2 10 -2 20 q0 57 122 109.5t122 62.5q0 20 -162 43l-238 -39q-2 18 -22 90q-18 66 -18 101zM229 1094q21 122 80 118q-20 -123 -80 -118zM387 1174v157q72 -43 201 -43q29 0 87 3t87 3q32 0 59 -2q-37 -39 -73 -75q-57 -55 -111 -56q-27 0 -51 13q-27 70 -86 69q-33 0 -67 -22.5 t-46 -46.5zM782 897h78l-39 -119zM1018 1370l80 -119q55 0 65 2q38 8 54 39q-43 49 -43 64q0 6 2 14h-39v-39h39q-20 -41 -50 -41q-27 0 -65.5 40t-42.5 40z" />
<glyph unicode="4" horiz-adv-x="1589" d="M92 713q41 29 68 106q31 94 45 113q35 51 110 43v37q8 2 17 2q25 0 51 -31q37 -41 45 -47q18 23 18 65q0 14 -3 48t-3 51q0 90 99 98l-37 37q43 297 459 297q143 0 284 -37q-2 -31 -2 -65q0 -33 2 -97.5t2 -95.5q0 -145 -39 -225q-12 2 -26 2q-12 0 -39 -2t-41 -2 q-57 0 -80 39l-74 -74q43 -41 133 -41q20 0 61.5 2t61.5 2q23 0 41 -2l-74 -74q35 -49 117 -117q92 -74 121 -106q57 -68 59 -150q-90 0 -180 -2q-98 -12 -153 -71q-2 -6 -2 -15q0 -12 38 -59h74l-74 -186q-25 37 -49 71q-41 51 -88 52q-23 0 -49 -13l-37 -37q39 -47 39 -59 q0 -6 -2 -14q-8 35 -99 83t-91 109q0 14 4 31q8 -2 14 -2q12 0 61 39q-14 31 -49 37h-63q-39 -47 -39 -60q0 -6 2 -14q-55 80 -145 80q-20 0 -41 -6q-39 -47 -39 -60q0 -6 2 -14h-111q2 8 2 14q0 12 -41 60l-110 -74l-74 110l111 76zM352 602q23 -39 47 -39q14 0 48 25.5 t57 25.5q17 0 35 -12h-187zM539 752h223v370zM799 82h149v-37z" />
<glyph unicode="5" horiz-adv-x="1568" d="M82 352l407 37q-6 -37 21 -57.5t65 -20.5q14 0 27 2h111q0 -51 2 -61q6 -35 37 -49q10 2 26 2q12 0 39 -2t39 -2q59 0 80 39q-78 31 -78 61q0 18 60.5 70.5t60.5 99.5q0 14 -4 29l37 37q-68 195 -215 186q-141 -37 -283 -74q-178 -41 -285 74q-47 -39 -59 -39q-6 0 -14 2 q12 66 122.5 88.5t137.5 97.5q-31 39 -99 39q-16 0 -46.5 -2t-47.5 -2q-16 0 -30 2v74q53 0 63 2q35 6 49 35q-66 33 -74 133q0 82 -2 166q57 27 115 53q68 33 72 94h633q4 80 90 80q20 0 64 -5t65 -5q25 0 41 6q10 -25 10 -41q0 -33 -47 -47q-66 -18 -74 -24q-8 2 -14 2 q-14 0 -62 -39q31 -20 81 -36t69 -32q29 -25 37 -82v-74h-373q31 31 31 60q0 25 -27 61q-33 47 -41 66q-10 -63 -65 -109q-72 -59 -82 -78q-10 -2 -23 -2q-10 0 -31.5 2t-31.5 2q-49 0 -64 -38q2 -8 2 -21q0 -10 -2 -32.5t-2 -32.5q0 -47 39 -64q78 20 131 21q51 0 129 -21 q0 -51 2 -61q6 -35 35 -50q10 2 22 2q10 0 32 -2t32 -2q49 0 63 39l-73 111q14 -100 139 -139q106 -33 215 -66q106 -58 92 -203l-112 -112q47 -39 61 -39q6 0 14 2l-39 -223l-73 73q-25 -31 -58 -30q-20 0 -65 16t-68 16q-41 0 -69 -39q0 -33 -40 -36.5t-79 -8.5 q-39 -12 -31 -65q23 -41 80 -41q14 0 41 3t39 3q14 0 26 -2q-68 -41 -163 -41q-68 0 -207.5 25.5t-202.5 25.5q-53 0 -96 -10v-39l-150 150q-39 -47 -39 -60q0 -8 2 -14l-110 74l223 73q-37 41 -119 41q-16 0 -52 -2t-54 -2q-20 0 -35 2zM788 -20h111v-37zM936 1393 l113 -111l36 37q-37 16 -36 43q0 14 19 50t17 54q8 -57 -47 -69q-16 -4 -102 -4z" />
<glyph unicode="6" horiz-adv-x="1693" d="M162 614h74q-2 -8 -3 -14q0 -12 39 -59q14 31 95 41q63 8 55 69q-16 39 -64 39q-10 0 -31.5 -2t-31.5 -2q-12 0 -23 2l150 76q-51 25 -100 51q-59 27 -113 27q-23 0 -47 -4v110q31 -4 59 -4q145 0 238 117q-47 39 -60 39q-8 0 -14 -2q12 39 27.5 81t46.5 68l-111 148 q35 45 111 45q39 0 114.5 -16.5t100.5 -16.5q51 0 51 45q0 41 -43 129q41 -6 166 0q111 6 166 -8q84 -23 114 -103q49 43 84 43q31 0 83.5 -60t105.5 -60q12 0 24 2l-73 -74q27 -31 68.5 -46t80.5 -28q6 -25 6 -39q0 -39 -51 -39q-10 0 -33 2h-32q-61 0 -76 -36 q-203 0 -410 112q-39 14 -69 15q-63 0 -111 -74q-41 -63 -80 -127l37 -37l-37 -37q16 -37 43 -37q14 0 50 19.5t57 17.5l147 -149l76 73q-6 8 -47 45q-31 27 -31 52q0 8 2 16l223 -37l-110 -76q61 -35 209 -37q111 -2 161 -73q0 -53 2 -64q6 -35 37 -49h37q2 -6 2 -14 q0 -12 -39 -60q47 -39 60 -39q6 1 14 3q-41 -37 -41 -82q0 -29 22.5 -86.5t22.5 -85.5q0 -45 -41 -82q-88 -76 -227 -76q-16 0 -53 2h-54q-137 0 -225 -74q12 2 12 6q0 6 -90 6q-125 0 -248 -12q-145 -14 -145 -37q0 -18 100 -39q-4 8 -4 15q0 12 41 61l-112 111 q-39 -47 -39 -60q0 -8 2 -14q-41 -14 -70 -14q-61 0 -80 69q-10 63 -22 129q-20 70 -88 76zM453 485q0 -8 6 -20q23 41 84 39q104 0 102 -2q80 16 80 -88q0 -43 -12 -84q2 4 6 24h37q41 -47 41 -61q0 -6 -2 -12l36 36h170q109 -3 127 -75v39q-115 25 -114 174q0 20 2 63 t2 66q0 96 -39 141q2 -78 -74 -78q-16 0 -55 5t-57 5q-20 0 -37 -6q6 -23 6 -43q0 -111 -156 -110q-20 0 -57 2t-51 2q-45 0 -45 -17z" />
<glyph unicode="7" horiz-adv-x="1589" d="M162 1401q0 10 4 18q37 41 117 41q18 0 54 -2t52 -2q20 0 37 2q0 -53 2 -63q6 -35 35 -49q20 80 127 79q25 0 78 -5t77 -5q31 0 54 4q-4 -6 -4 -12q0 -14 41 -61q78 82 272 81q150 0 322 -45l-111 -110q16 -37 43 -37q14 0 50 19.5t56 17.5q-209 -217 -335 -297 q-37 -47 -38 -169t-36 -167h-113v63q-6 35 -37 50q-39 -23 -39 -82q0 -12 2 -39t2 -39q0 -16 -2 -27l37 -37q14 31 49 35q2 2 64 2q-27 -86 -53 -170q-33 -100 -97 -129h-149l76 76q-31 39 -101 39q-14 0 -45.5 -2t-46.5 -2q-18 0 -31 2q-10 23 -10 39q0 37 60.5 61.5 t60.5 48.5q10 2 21 2q10 0 32.5 -3t32.5 -3q47 0 64 41q-86 0 -129 76q-29 74 -58 147q78 33 191 43q125 12 182 31q-49 39 -61 39q-6 0 -15 -2l150 113q-18 18 -78 49q-51 27 -72 61q-47 -39 -59 -39q-6 0 -11.5 5.5t-5.5 11.5q0 25 29 51q43 39 47 45q-59 41 -186 41 q-29 0 -79 -2t-69 -2q-23 0 -37 2l-149 147q-35 -33 -72 -67q-43 -41 -39 -80q-8 18 -80.5 71.5t-72.5 94.5zM500 1532v74l223 -37q-10 -39 -86 -39q-16 0 -52 2t-53 2q-18 0 -32 -2zM539 82q18 23 100 51q90 35 123 60q2 -8 2 -15q0 -25 -31 -51q-43 -39 -47 -45h-147z M1022 1569q16 6 33 6q57 0 114 -80q-84 0 -98 4q-55 12 -49 70zM1282 1532h148v-37z" />
<glyph unicode="8" horiz-adv-x="1677" d="M186 461v76q8 2 21 2q10 0 31.5 -3.5t33.5 -3.5q47 0 64 41q-41 14 -41 64q0 10 2 31.5t2 31.5q0 12 -2 21h262q-16 -37 -16 -72q0 -82 110 -178q143 -123 166 -158q78 29 156 60q88 45 104 125l-37 186q8 2 21 2q10 0 31.5 -2t31.5 -2q49 0 64 39q-47 43 -129 43 q-84 0 -131 -43q2 8 2 14q0 12 -39 62q-51 -27 -100 -54q-59 -27 -113 -26q-23 0 -47 4q2 23 62.5 46.5t60.5 59.5q0 18 -13 43l-36 37l-37 -37q-29 86 -152 113q-102 18 -203 37q-100 35 -92 147q121 10 113 187q70 14 150.5 56t146.5 56q-31 39 -101 39q-14 0 -45.5 -2 t-46.5 -2q-16 0 -30 2q41 119 204 119q39 0 119 -7t119 -7q45 0 78 6q0 -51 2 -62q6 -35 35 -49q35 96 120 96q41 0 128.5 -28.5t123.5 -30.5l150 -223l-186 -74q23 -41 79 -41q12 0 39 2t41 2t27 -2l-76 -74q14 -33 14 -63q0 -47 -45 -111q-66 -94 -79 -122q109 4 159 -82 q18 -29 64 -179q-12 -27 -72 -47q-49 -18 -41 -65q18 -37 43 -37q16 0 52.5 20.5t54.5 16.5q2 -121 -121 -166q-106 -29 -215 -57q16 -39 63 -39q12 0 34 2t32 2q12 0 20 -2l-149 -150l-148 113q-51 -78 -145 -78q-20 0 -41 4l-37 37q-29 -14 -35 -49q-2 -10 -2 -64 q-387 0 -596 299l113 111q-16 39 -64 39q-12 0 -33.5 -2t-31.5 -2q-12 0 -21 2zM596 1243q27 6 45 6q57 0 68 -57q2 -53 6 -107q8 -61 65 -65q51 -6 187 37q41 -47 41 -62q0 -6 -4 -14l38 39q-41 14 -38 65q2 82 0 82q-37 147 -185 187q-12 -115 -174 -115q-25 0 -49 4z" />
<glyph unicode="9" horiz-adv-x="1767" d="M233 985q0 45 41 94q-39 49 -38 62q0 6 2 14h75q-4 -8 -4 -14q0 -12 41 -62q39 16 39 64q0 12 -2 33.5t-2 31.5q0 12 2 21q-43 10 -78 53t-35 90t39 80q33 76 127 76q43 0 130 -19.5t118 -19.5q74 0 74 76q0 16 -4 37h-111v73h447q-2 -6 -2 -14q0 -12 38 -59h113v-37 h-149q2 6 2 14q0 12 -39 59q-6 -35 -117 -82t-111 -86t78 -92h113q-6 -16 -6 -30q0 -33 26.5 -63t53.5 -56q61 39 135 39q61 0 174 -35q121 -37 174 -41l-74 -74q14 -29 49 -37q8 -2 62 -2v-110q-6 2 -15 2q-12 0 -59 -39q12 -27 47 -41t35 -37q0 -15 -8 -35q6 -37 6 -71 q0 -174 -117 -299q-23 2 -41 2q-94 0 -145 -78q6 -6 74 -45q47 -27 47 -62q0 -18 -11 -41q-76 -53 -151 -104q-94 -55 -162 -55q-31 0 -57 10l-37 -37l-76 74q-14 -39 -63 -39q-10 0 -32 2t-32 2q-12 0 -20 -2l-39 37q-20 -39 -45 -39q-16 0 -47 21.5t-48 21.5 q-25 0 -45 -41l-36 112q39 -14 77 -26q45 -18 70 -49q51 39 51 86q0 16 -7 46.5t-7 47.5q0 43 37 80l76 -111q76 31 172 135q121 131 161 162q-47 41 -59 41q-6 0 -14 -4l36 39q-41 0 -166.5 -18.5t-199.5 -18.5q-113 0 -191 37v74q6 -2 15 -2q12 0 59 38q-35 39 -76 39 q-25 0 -80 -25.5t-90 -25.5q-27 0 -51 12q-4 49 -60.5 124t-56.5 116zM344 403q0 49 72 64q59 10 121 18q-4 -8 -5 -14q0 -12 41 -59q6 4 45 47q27 29 52 28q6 0 14 -2q6 -16 6 -30q0 -33 -26.5 -63t-53.5 -56q-8 -2 -14 -2q-12 0 -59 39q-25 -37 -66 -37q-25 0 -63 14 q-29 12 -58 23q-6 16 -6 30zM647 1341q111 0 113 -63q-2 12 -37 -135q-25 -92 35 -137q53 -39 112 -39q57 0 150 47q110 57 147 65h-73q2 23 2 41q0 106 -84 148q-51 27 -184.5 38t-180.5 35z" />
<glyph unicode=":" horiz-adv-x="675" d="M86 956q0 25 4 45q51 0 62 3q35 6 49 36l-37 111q20 -4 45 -4q23 0 66.5 4t66.5 4q90 0 119 -78q49 39 61 39q6 0 15 -2v-63q-6 -35 -37 -50q47 -39 59 -38q6 0 14 2v-74q-16 -2 -36 -2q-16 0 -52 2t-55 2q-80 0 -117 -39q14 -41 64 -41q10 0 31.5 2t31.5 2q12 0 21 -2 v-37h-111q2 8 2 15q0 12 -39 61q-10 -2 -20 -2t-32.5 2t-33.5 2q-47 0 -63 -41v-37q-78 33 -78 178zM127 221l186 74q-51 78 -147 78q-18 0 -39 -4q-10 61 33 71q41 4 82 6q43 10 34 72h224l-76 -74q57 -4 84 -47q10 -20 29 -90q13 -61 36 -86q-33 -39 -112 -39q-18 0 -57 3 t-58 3q-121 0 -108 -116zM164 1264h112v-39zM387 109h186q-6 -41 -92 -41q-88 0 -94 41z" />
<glyph unicode=";" horiz-adv-x="782" d="M215 377q18 4 47 4q25 0 87.5 -5t92.5 -5q139 0 152 92l29 -29q-51 -31 -52 -78q0 -18 11.5 -58t11.5 -60q0 -37 -29 -66h-59v49q-4 27 -29 39h-28q-6 16 28 57q-27 18 -49 19q-20 0 -60 -28.5t-73 -28.5q-23 0 -51 10v49q-4 27 -29 39zM215 668q29 14 29 34 q0 10 -15.5 39t-13.5 43l117 117q-10 25 -39 29h-49v88q20 4 45 4q29 0 83 -8t77 -8q35 0 57 12q61 2 61 -57q0 -6 -2 -21v-22q0 -63 58 -74l-174 -60l174 -88q-47 -63 -185 -63q-109 0 -223 35zM244 -119l88 -59l-58 -58zM244 201h59q-6 -16 29 -58q47 51 71 52 q16 0 43 -49.5t60 -61.5q-20 -31 -43 -31q-14 0 -46 20.5t-52 20.5q-16 0 -33 -10zM389 -2h88v-31zM389 -119h117v-31z" />
<glyph unicode="?" horiz-adv-x="1777" d="M266 1118q35 98 107 201q57 86 116 172q39 -39 84 -39q29 0 92.5 24.5t100.5 24.5q31 0 57 -10q6 -70 41 -70q14 0 63.5 22.5t78.5 22.5q23 0 41 -12q51 -25 170 -24h49q104 0 151 -21q68 -27 76 -104q-6 2 -14 2q-12 0 -60 -39q14 -29 49 -37h62v-76h-111q2 8 2 14 q0 12 -39 62q-41 -20 -151 -31q-100 -10 -148 -45q31 -39 101 -39q14 0 46 2t46 2q18 0 31 -2q10 -29 10 -51q0 -66 -80 -94q-10 -4 -147 -33q-80 -16 -80 -51q0 -37 73 -105l-73 -75q31 -14 37 -50v-61q-51 0 -62 2q-35 6 -49 35q-31 -31 -72 -31q-37 0 -96 27 q-84 39 -92 41q-20 39 -21 65q0 41 70 76t70 80q0 16 -9 39q35 41 118 75.5t106 57.5q47 43 37 127q-23 76 -113 76h-25.5h-25.5q-68 0 -97 37q-8 -8 -45 -74q-27 -49 -63 -49q-16 0 -39 10q6 37 -20.5 57.5t-65.5 20.5q-14 0 -27 -2q-27 2 -51 2q-160 0 -172 -115 q45 6 129 -16q94 -27 146 -27q31 0 61 6q-51 -41 -174 -41t-199 41zM639 188h111v-36zM713 412h147q4 -8 4 -15q0 -12 -41 -59q41 -49 41 -62q0 -6 -4 -14q-55 -4 -104 45t-43 105zM1159 858h111l-74 -74z" />
<glyph unicode="@" horiz-adv-x="1697" d="M135 788q10 55 23 113q12 66 8 133h184v-92q-16 6 -61 -31q10 -23 38.5 -34t28.5 -31q0 -10 -6 -27q-49 -49 -49 -102q0 -74 106.5 -175.5t106.5 -119.5q0 -37 -164 -37l-153 156l92 92q-123 33 -154 155zM227 1159q35 70 80 70q12 0 49 -7.5t64 -7.5q26 1 55 7 q-20 0 -40.5 -51.5t-51.5 -51.5q-14 0 -33 10v52q-4 29 -31 41zM379 1317q0 59 45 94q29 18 102.5 42t102.5 46h155v-63q-18 6 -63 -31q0 -51 -78 -80q-70 -23 -137 -43h-125q-2 18 -2 35zM444 633l31 31q-31 16 -31 92q76 0 93 32q-35 12 -33 54q0 72 2 69q16 -6 61 31 q-33 47 -32 86q0 121 311 162q-6 -18 31 -62q37 43 30 62q10 -10 78 -35q53 -18 53 -55q0 -14 -8 -35q-16 6 -61 -31q16 -31 92 -30q35 14 33 55q0 72 0 69h123q0 -25 -80 -76t-80 -87q0 -41 67 -84q37 43 31 61h31q6 -18 -31 -61q18 -14 19 -33q0 -16 -27 -58t-27 -67 q0 -31 35 -59q2 0 -70 2q-41 0 -55 -33l64 -62l30 31l62 -61q-2 57 74.5 71.5t78.5 51.5q0 -72 -79 -119q-92 -53 -105 -99q-14 -2 -27 -2q-41 0 -109.5 30t-100.5 30q-31 0 -81.5 -31t-103.5 -31q-84 0 -168 55.5t-121 135.5zM537 201l92 92q-12 27 -41 31h-51l30 61 q96 -31 97 -111q-1 -18 -5 -43q-12 -35 -55 -32q-72 0 -67 2zM567 911h62q23 -20 43 -41q27 -27 18 -51q-43 -37 -61 -31q53 -49 106 -96q63 -55 142 -59l122 248q-55 92 -135 92q-37 0 -135 -33t-162 -29zM752 139l125 92q-45 37 -62 31q35 31 96 31q20 0 61.5 -4t59.5 -4 q84 0 123 69q25 8 51 -18q21 -20 41 -43q10 -59 -61.5 -61.5t-61.5 -61.5q-18 23 -41 23t-67.5 -28t-63.5 -28q-33 0 -45 64q-37 -45 -30 -62h-125zM846 1499q12 -8 102 -20q66 -8 66 -49q-1 -23 -15 -56q-76 0 -92 31l-30 -31zM1065 1384q0 37 21.5 67t54.5 30q23 0 45 -13 q-6 -18 31 -63q14 4 26 4q53 0 70 -72q16 -63 33 -125q31 -66 118 -53q37 -45 31 -63q-94 10 -197 82q-88 68 -174 135q-59 6 -59 71zM1335 938q0 20 28 32.5t38 33.5q8 -4 63 -21q39 -10 39 -37q0 -15 -8 -35h-156q-4 16 -4 27zM1339 819h95v-31z" />
<glyph unicode="A" horiz-adv-x="1671" d="M70 293q338 53 436 217q-14 31 -49 37h-60v35h72q-2 -6 -2 -13q0 -12 39 -59q6 -2 12 -2q12 0 60 39q-23 49 -48 100q-33 55 -81 55q-23 0 -52 -10l-73 217h61q33 8 47 35v62q-6 33 -35 47h-37q-8 25 -8 43q0 59 91.5 85.5t91.5 59.5q0 25 -29 66q-47 -39 -60 -39 q-6 0 -11 5t-5 11q0 12 39 59q6 2 14 3q12 0 58 -39q39 18 39 45q0 25 -37 61.5t-37 38.5q23 33 71 33q21 0 46 -6q119 -29 125 -29q48 5 48 86q0 12 -1 25h-2q0 2 178 2q98 0 149 -39v-146q-6 4 -14 4q-12 0 -57 -39q88 -6 138 -54t50 -130q0 -33 -8 -69h2q0 2 -123 2 q-66 0 -96 -39q37 -76 135 -76q25 0 72 4t69 4q29 0 49 -4l74 -326h1q0 2 -122 2q-68 0 -96 -39q-2 -13 -2 -24q0 -57 41 -90q53 -33 104 -66h183l-109 -73q123 -51 127 -56q53 -37 53 -125h-71q8 23 8 39q0 37 -45 62q-66 37 -72 45q-57 -74 -158 -74q-59 0 -192 37 t-195 37q-14 -66 -100 -74q-76 -4 -150 -6q-77 -16 -77 -103q0 -16 2 -35h-72v60q-6 35 -37 49q-16 10 -35 10q-20 0 -53 -24.5t-47 -24.5q-25 0 -45 39q-25 -41 -53 -41q-31 0 -74 56.5t-55 56.5zM143 112h109v-36zM649 365l146 -35v35h-146zM672 715q0 -39 51 -97 q48 -38 116 -38h3.5h2.5q63 0 95 38q-43 152 -43 197q0 31 6 94l-72 72q8 -27 9 -49q0 -59 -84 -117.5t-84 -99.5zM1120 147l363 -35q-16 -37 -75.5 -60t-127.5 -23q-160 0 -160 110v8z" />
<glyph unicode="B" horiz-adv-x="1900" d="M248 399q39 143 182 181q-33 114 -137 114h-2q-20 0 -43 -6v580q8 -2 16 -2q23 0 49 28q37 43 43 47q-12 31 -47 35h-61v74q25 -2 47 -2q94 0 231.5 58.5t210.5 58.5q78 0 164 -43q109 41 252 41q145 0 254 -41q-2 -6 -2 -15q0 -12 39 -57h108q-68 -41 -204 -41 q-137 0 -230 41q-47 -39 -59 -39q-6 0 -15 2l-71 72q-12 0 -118.5 20.5t-178.5 20.5q-35 0 -66 -4l-37 -37q16 -37 64 -37q83 0 83 2h-1l-180 -74q14 -37 61 -37q85 0 85 2h-1q-4 -8 -4 -14q0 -12 39 -59q121 73 262 73h4q121 0 338 -65q236 -72 338 -80l-109 -109 q44 -38 57 -38h1q8 0 14 2q0 -84 -74 -123q-72 -29 -143 -58h5q69 0 120 -53q16 -16 78 -112q43 -70 88 -89q2 -25 -20.5 -59.5t-22.5 -56.5q0 -14 6 -29q-29 39 -62 39q-27 0 -79 -35t-76 -39q29 -72 110 -74h144q-4 -53 -58.5 -95t-54.5 -89q0 -14 4 -33q-39 -4 -88 -4 q-41 0 -125 5.5t-125 5.5q-176 0 -241 -78q-41 12 -84 12q-39 0 -101.5 -13.5t-85.5 -13.5q-57 0 -92 52q-29 -14 -35 -50q-2 -8 -2 -59q-45 10 -90 23q-57 12 -94 12q-63 0 -104 -35l71 72q-98 31 -98 92q0 29 23.5 83t23.5 77q0 55 -94 73zM322 436h108l35 35zM573 1087 q23 -10 48 -10q29 0 76.5 21.5t68.5 21.5q35 0 61 -33q2 -8 2 -14q0 -12 -36 -57q37 -20 36 -47q0 -25 -36.5 -61t-36.5 -38q31 -20 53 -20q33 0 60.5 48t45.5 48q23 0 58 -39h6q53 0 84 72t84 72h6q-29 27 -47 69q-12 37 -25 76q-68 -27 -258 -45q-168 -16 -250 -64z M827 399q31 -6 64 -6q49 0 149 25q85 18 140 18h10l-37 109q25 45 47 80q16 23 17 28q0 4 -17 27q-23 35 -47 82q14 31 49 35q3 2 60 2h-60q-35 6 -49 35v-72q-29 -14 -113 -94q-68 -66 -135 -66q-35 0 -78 14v-217z" />
<glyph unicode="C" horiz-adv-x="1769" d="M123 764q0 12 39 59q-39 14 -39 62q0 85 2 85v-1q6 -2 14 -2q12 0 58 37q-14 70 -15 118q0 104 88 209q37 55 74 55q16 0 56 -14t69 -14q27 0 53 8q53 31 125 133q55 82 119 82q49 0 119 -33v1q-2 0 -2 -85q0 -47 39 -61l71 72q-29 14 -35 49q-2 8 -2 59q37 39 115 39 q141 0 141 -2h-2q2 -6 2 -14q0 -12 -36 -58q150 -57 299 -114q170 -82 170 -248l-181 -109q39 -47 39 -59q0 -6 -2 -14l-74 73q-27 -6 -30.5 -42t-20.5 -36q-8 0 -20 5q-29 -2 -51 -3q-53 0 -81 25t-48 88l34 35q-74 35 -147 72q-92 39 -160 39t-127 -37q-39 -47 -39 -60 q0 -6 2 -14q-23 -2 -58.5 20.5t-57.5 22.5q-12 0 -27 -6q-37 -27 -37 -58q0 -20 20.5 -62t20.5 -69q0 -14 -4 -28l-109 108q-38 -28 -38 -59q0 -29 35.5 -81t37.5 -77q43 18 70 19q41 0 41 -68v-21.5v-23.5q0 -70 35 -88l-181 -72q6 -4 43 -45q27 -29 50 -29q8 0 16 3v-10 q0 -64 -72 -64h-15h-15q-61 0 -80 -35h10q48 0 59 -37q3 -39 11 -78q6 -32 45 -32q9 0 20 2l37 36l-37 35q0 33 39 37t76 6q32 12 32 52q0 7 -1 14q31 -8 96 -80q59 -66 98 -66q45 0 94 74q35 -12 64 -12q66 0 104 65q16 27 49 127v37q41 -33 90 -33q33 0 101.5 21.5 t109.5 21.5q31 0 62 -10l-37 -254q-6 -2 -12 -2q-12 0 -60 39q-4 -76 -88 -76q-12 0 -36.5 2t-36.5 2q-68 0 -93 -36q51 -39 150 -39q178 0 178 2h-2q-33 -4 -69.5 -82t-88.5 -78q-25 0 -59 14q-101 46 -243 46q-54 0 -115 -7q-317 -35 -340 -35q-178 6 -279 142q7 -1 13 -1 q47 0 55 56q10 76 41 90q-47 39 -60 39q-6 0 -12 -2q-29 -14 -35 -49q-2 -8 -2 -60q-27 -8 -45 -8q-41 0 -61.5 38t-38.5 79l36 35q-53 0 -65 31q-6 14 -7 73.5t-36 77.5l108 72q-14 31 -47 35q-4 2 -61 2q-2 6 -2 12zM776 -10q25 37 131 41q119 4 158 32v-73h-289z" />
<glyph unicode="D" horiz-adv-x="1933" d="M256 532q0 92 43 134l37 36q-47 39 -60 39q-6 0 -14 -2v72q16 -4 31 -4q31 0 59.5 25.5t55.5 52.5q-66 53 -93 100q-4 6 -53 117q8 2 14 2q12 0 60 -39q39 39 88 39q31 0 92.5 -21.5t91.5 -21.5q49 0 88 41q-39 72 -164 72q-25 0 -70.5 -3.5t-66.5 -3.5q-135 0 -135 111 q0 18 2 41q25 33 117 41q80 6 100 67q-14 29 -47 35h-61q43 0 167 37t187 37q102 0 154 -74h71q-2 -6 -2 -12q0 -12 39 -59l109 36q-2 -8 -2 -14q0 -12 36 -59q8 -2 15 -2q12 0 59 39l-108 254q10 1 20 1q70 0 164 -47q121 -59 178 -63l-108 -74q45 -61 157 -71 q147 -12 168 -23q72 -31 72 -146v-12q-10 -73 -80 -73h-2q-27 0 -77 11t-64 11q-31 0 -31 -26q0 -31 37 -105q23 27 45 27q20 0 67.5 -39t86.5 -39q26 0 55 16q-3 -14 -3 -41.5t3 -70.5q1 -17 1 -31q0 -51 -11 -74q-20 -38 -77 -38q-10 0 -22 1h-61q-35 -6 -47 -37 q14 -38 59 -38h2q83 0 83 2h-1q-78 -31 -78 -68q0 -20 42 -67.5t42 -73.5q0 -41 -77.5 -79t-225.5 -50q-211 -16 -246 -23q35 -84 107 -84q20 0 73.5 9.5t86.5 9.5q31 0 59 -9q-133 -147 -510 -147q-53 0 -141 4q2 6 2 12q0 12 -39 60q-20 -6 -66.5 -40t-66.5 -34 q-33 0 -47 74q-39 -47 -39 -60q0 -6 2 -12q-41 -16 -74 -16q-74 0 -139 80q-88 102 -113 116v72q51 0 62 2q33 6 47 35v61q-6 33 -35 47q-39 -47 -39 -59q0 -6 2 -12q-43 23 -43 118zM262 1645h363q-12 -2 -76 -38t-103 -36q-43 0 -75 37l-35 -37zM479 340q53 0 163 -36 t161 -36q88 0 147 72q-102 20 -180 20t-182 -20q-39 47 -39 59q0 6 4 15h-74v-74zM516 920h-2q0 2 178 2q98 0 150 -37v1q2 0 2 -106q0 -55 -39 -78q-6 -2 -12 -2q-12 0 -60 39q-39 -31 -39 -47q0 -10 39 -30.5t39 -49.5q0 -8 -2 -18q-23 -39 -78 -39q-105 0 -105 2h1 l37 -35q20 39 77 39q104 0 104 -3l-1 -1q39 -45 39 -57q0 -6 -2 -15q45 -8 82 -8q74 0 157 43q111 59 160 74l-37 37q-1 7 -1 12q0 35 40 49q59 20 70 47h-37q-39 45 -39 58q0 8 4 14q59 39 119 80q-2 -2 -10 -6l-146 108l72 72q-74 4 -96 86q-33 115 -50 131 q-21 -73 -72 -73q-5 0 -11 1q-59 16 -121 35q-19 5 -37 5q-51 0 -84 -40l37 -36q16 -47 16 -82q0 -74 -72 -107q-41 -16 -149 -33q-96 -12 -121 -32z" />
<glyph unicode="E" horiz-adv-x="1634" d="M240 987q0 25 6 49h-2q0 -2 104 -2q57 0 78 37q-49 76 -141 76q-18 0 -39 -2v188q6 123 45 180q44 68 141 68q15 0 31 -2q193 -145 419 -145h15q39 47 39 59q0 6 -2 14q43 -41 88 -41q51 0 127 58.5t102 58.5q49 0 80 -113h74q-4 -8 -4 -14q0 -12 39 -59h73q6 -25 7 -43 q0 -41 -38 -61.5t-77 -39.5l72 72l-146 109q-39 -45 -39 -58q0 -8 2 -14h-71q2 6 2 14q0 12 -39 58l-160 -74q-86 -51 -92 -143h1q0 2 -106 2q-55 0 -77 -39v-144l653 -73v-72h1q0 2 -106 2q-55 0 -77 -39q27 -33 88 -43q70 -10 94 -29q-6 -33 -98.5 -40t-92.5 -62 q0 -18 9 -43q-30 19 -90 19q-43 0 -101 -10q-44 -7 -82 -7q-80 0 -125 35q-6 -18 -49 -86q-31 -51 -31 -90q0 -20 7 -41l36 -37q-29 -14 -34 -47q-2 -10 -2 -62q47 -39 59 -39q6 0 14 2q29 14 35 50v59h62q35 -4 47 -35q25 39 53 39q18 0 55 -21.5t56 -21.5q31 0 53 39 l362 -252l-35 -37l-73 72q-39 -74 -56 -92q-27 -33 -90 -51l-71 71q-14 -39 -62 -39q-85 0 -85 2h1l-35 37q-38 -46 -38 -58q0 -7 2 -13h-72q-2 6 -2 12q0 12 37 59q-10 2 -21 2q-35 0 -132 -43t-165 -43q-41 0 -80 13q-45 -18 -75 -19q-76 0 -105 125q-35 152 -74 182 q8 -2 15 -2q12 0 59 39l-74 72q-45 -39 -57 -39q-8 0 -14 2l71 74q-75 48 -75 139q0 20 4 41q23 18 94 31q63 8 86 43q-20 37 -78 37q-104 0 -104 -2l2 -1q24 28 24 65q0 28 -15 86t-15 91zM1077 1288h146v-35zM1331 1579h146v-37z" />
<glyph unicode="F" horiz-adv-x="1617" d="M250 184h108v-37zM250 365q53 248 57 262q45 145 123 209q20 -4 39 -5q92 0 143 76v37q-59 39 -168 39q-197 0 -197 -2h3v578q47 14 94 14q94 0 252 -81t252 -81q27 0 53 4q47 39 60 39q6 0 12 -4l-72 -72q45 -37 163 -37.5t163 -33.5q-37 -43 -102 -43q-24 0 -52 6 q-86 16 -172 35q-96 0 -145 -107q39 -16 39 -61q0 -85 -2 -85v1q-4 -18 -5 -41q0 -63 29 -131q31 -76 84 -117l109 108q-39 45 -39 58q0 6 2 14q-2 -8 -2 -16q0 -23 18.5 -41.5t40.5 -18.5q8 0 17 4h108q-39 -125 -39 -151q0 -14 2 -31q-6 2 -14 2q-12 0 -57 -37 q45 -39 57 -39q8 0 14 2q-2 -31 -55 -45q-74 -18 -90 -28v110h61q35 6 47 35l-71 109q2 -72 -74 -72h-22.5h-22.5q-84 0 -98 -72q6 -6 43 -47q27 -29 51 -28q6 0 14 2q-8 2 -16 2q-29 0 -67 -58.5t-64 -58.5q-31 0 -70 43q10 23 10 39q0 35 -47 61q-66 37 -72 45 q-14 -31 -92 -41q-54 -9 -54 -56q0 -6 1 -13q8 -49 64 -66q8 -2 98 -14q51 -6 51 -31t-31 -69q12 -29 47 -35q10 -2 62 -2q0 -51 2 -60q6 -35 33 -49h37v-72q-6 2 -15 3q-12 0 -57 -39l35 -109l-361 37q72 43 72 111q0 63 -59 131q-55 59 -123 84h-35zM1227 907h108v-35z M1335 1341l37 109q31 0 35 -39t8 -76q10 -30 46 -30q9 0 20 2v-109h-109q-2 6 -2 14q0 25 29 50q41 39 45 45q-14 31 -47 34h-62z" />
<glyph unicode="G" horiz-adv-x="2123" d="M195 928q29 98 55 196q41 137 100 209q80 98 207 101l109 -109l73 109l-145 108q217 82 434 82t434 -82q0 -51 66 -90q74 -41 80 -53h-254q2 6 2 12q0 12 -39 59q-27 -14 -33 -47q-2 -10 -2 -61q45 -39 57 -39q8 0 15 2q2 -6 2 -12q0 -12 -39 -60l74 -71q53 112 226 112 h3q31 0 59 -4q61 -23 68 -102q8 -90 41 -115l-506 -37q1 11 1 21q0 61 -42 96q-51 33 -104 64q-51 0 -62 2q-33 6 -47 34l-37 -36q-19 38 -75 38h-3q-103 0 -103 -2h1l-37 -36q37 -16 37 -41q0 -14 -19.5 -49t-17.5 -54q-41 -27 -41 -135q0 -33 5 -111.5t5 -115.5 q0 -43 -4 -74q-75 -18 -75 -50q0 -21 58 -82t58 -97q0 -12 -6 -23h-1q0 2 122 2q68 0 96 -39q4 -6 4 -14q0 -12 -39 -58q14 -38 60 -38h2q83 0 83 2h-1l37 36q-47 39 -60 39q-6 0 -12 -4q70 29 186 150l176 176q-2 2 -53 41q-35 25 -55 24q-23 0 -37 -28v-37h-74v74 q53 0 62 2q35 6 47 35q-28 36 -93 36h-3q-122 0 -122 -2h1v109q51 8 102 8q66 0 179.5 -16.5t170.5 -16.5q86 0 164 25q-2 -6 -2 -14q0 -12 39 -58q45 39 57 39q8 0 15 -2q-39 -27 -39 -55q0 -16 25.5 -57.5t25.5 -65.5q0 -20 -12 -41q-6 4 -15 4q-12 0 -57 -39 q76 -72 76 -162q0 -18 -4 -62t-4 -73q0 -32 4 -65q-66 -74 -176 -74q-59 0 -174 28.5t-158 28.5q-137 0 -143 -200q-92 43 -173 43q-51 0 -137 -24t-137 -24q-80 0 -170 41q-14 37 -160 170q-127 117 -127 201q0 68 70 135q2 8 2 15q0 12 -39 57h-72v182h-1q0 -2 104 -2 q57 0 80 39l-111 109q-37 -47 -37 -60q0 -6 2 -14q-8 -2 -14 -2q-12 0 -59 39zM340 965q25 -76 127 -76q78 0 164 39zM1100 1325q10 -23 92 -46t90 -62l-37 36q-2 6 -2 15q0 12 39 57l-37 -35h1q0 -2 -83 -2q-47 0 -63 37zM1427 94q57 -39 166 -39q198 0 198 3q0 1 -3 1 q-63 -43 -191 -43q-141 0 -170 78zM1462 1108z" />
<glyph unicode="H" horiz-adv-x="1742" d="M123 1343q0 47 39 62l145 -37q18 23 49 105q27 68 60 77q2 -8 2 -14q0 -12 -39 -59q20 -18 64 -18q31 -1 75 9q33 7 61 8q59 0 91 -34q-25 -25 -70 -25q-12 0 -35.5 2t-34.5 2q-77 0 -77 -91q0 -70 84 -70h2q10 0 28 2h29q80 0 80 -62q0 -20 -6 -49q59 -61 133 -61 q33 0 108.5 18t118.5 18q37 0 74 -10q39 29 39 96q0 122 -3 122l-1 -1l73 -73q39 47 39 59q0 6 -2 14l72 -108q16 6 70 47q41 31 75 31q16 0 35 -7q-2 -6 -2 -14q0 -12 39 -57q31 14 35 47q2 2 2 61q-47 39 -59 39q-6 0 -15 -4v37h146q8 -43 8 -78q0 -154 -189 -176l-36 -35 q31 -39 96 -39q122 0 122 2h-1q-6 -37 -7 -86q0 -41 6.5 -128t6.5 -130q0 -180 -115 -235q111 -8 111 -131q0 -23 -4.5 -71t-4.5 -71q1 -30 7 -53q-16 2 -33 2q-68 0 -181.5 -58.5t-170.5 -58.5q-61 0 -123 43q6 35 78 39q82 6 104 33q16 -18 47 -18q57 0 133 55l37 35 q-31 110 -135 110h-2q-33 0 -94.5 -13t-79.5 -13q-47 0 -47 47q0 41 32 123l-254 291h-5q-34 -1 -82 -55q-52 -58 -76 -58q-27 0 -54 39q-25 -39 -53 -39q-18 0 -55 21.5t-55 21.5q-29 0 -54 -39q115 -47 115 -168q0 -29 -6 -86t-6 -86q0 -33 6 -59h1q0 -2 -122 -2 q-66 0 -96 38q-2 6 -2 13q0 12 39 59q-43 10 -144 60q-88 43 -147 49q39 123 39 151q0 14 -2 31q-47 37 -60 37q-6 0 -14 -2l74 74q-46 36 -59 36h-1q-6 0 -14 -2l219 109q-47 39 -59 39q-6 0 -15 -2v37l109 -74l108 145q-25 8 -102 66q-66 45 -106 45q-43 0 -80 -39 q-2 8 -2 14q0 12 39 60q-14 29 -50 35h-61v-1q-2 0 -2 84zM125 66q-1 13 -1 25q0 41 12 63q14 28 63 57q55 -80 141 -80q20 0 39 6v-71h-254zM379 645h74q-39 45 -39 57q0 8 2 15h-37v-72zM453 211l143 -109q-20 -10 -37 -10q-35 0 -59.5 59.5t-46.5 59.5zM1139 1550v72 l362 -37q-27 -72 -84 -72q-29 0 -100.5 25t-112.5 25q-35 0 -65 -13z" />
<glyph unicode="I" horiz-adv-x="901" d="M203 1303q0 12 6 30l289 -35q-25 -68 -109 -217q-25 -4 -59.5 18.5t-57.5 22.5q-14 0 -28 -6q0 51 2 62q6 33 35 47q-12 27 -50 41q-29 14 -28 37zM209 68q29 12 35 47v61q14 6 28 6q23 0 64 -19.5t55 -19.5q31 0 35 68h-12q-68 0 -118 43q-54 47 -54 113q0 51 39 98 q27 -6 53 -6q51 0 121 30q90 41 114 48l-71 73q-28 -32 -60 -32h-2q-20 0 -68.5 21.5t-78.5 21.5q-23 0 -45 -11l145 72q-55 8 -80 37q-14 18 -29.5 67.5t-35.5 75.5q47 4 135 58.5t135 54.5t92 -39q14 39 62 39q85 0 85 -2h-1v-62q-6 -35 -37 -49q45 -51 45 -82 q0 -37 -101 -61q-109 -27 -124 -74q29 -57 96 -67q59 -2 121 -5q-35 -39 -140 -67q-129 -37 -166 -57q-82 -45 -94 -130q27 -108 109 -108h2q41 0 145 39q93 35 139 35h5l-146 -109q76 -41 92 -55q34 -29 54 -90l-74 71q-38 -75 -169 -75h-3q-33 0 -98.5 4t-96.5 4 q-39 0 -67 -4zM209 1587q33 12 67 12q43 0 118 -25.5t112 -25.5q53 0 100 39q4 1 8 1q23 0 54 -20q37 -22 57 -22q13 0 27 4q-8 -55 -37 -77q-16 -16 -66.5 -32t-79.5 -34q4 6 4 12q0 12 -38 60q-29 -14 -35 -47q-2 -10 -2 -62q-104 16 -187 68q-96 63 -102 149zM547 1141 q0 18 16.5 65t16.5 78q0 27 -11 49q23 10 39 10q35 0 59.5 -59t47.5 -59h-7q-47 0 -67 -51q-35 -92 -35 -93q-59 20 -59 60z" />
<glyph unicode="J" horiz-adv-x="1499" d="M115 459l73 108h5q50 0 67 -108h-145zM141 248q0 41 64 59q78 25 92 43q4 63 90 108.5t90 108.5q-37 113 -198 113q-27 0 -56 -4v37l217 -37q-2 -6 -2 -12q0 -12 39 -60h74q-2 -2 -38 -39t-36 -61q0 -25 37 -45l37 37l180 -183q39 16 39 64q0 83 -2 83v-1q51 0 59 2 q35 6 50 35q-27 49 -52 98q-26 55 -26 104q0 27 4 52l145 71l-145 109l108 71q-41 10 -74.5 52.5t-33.5 89.5q0 45 37 76l-37 290l108 -217q68 4 123.5 118t102.5 114q41 0 100 -51q46 38 58 38h1q6 0 15 -2v-145q-18 -2 -53 17.5t-50 19.5q-27 0 -43 -37v-35q1 0 1 -1 q0 -3 -85 -3q-45 0 -61 39q-37 -45 -37 -57q0 -8 2 -15q51 -39 150 -39q178 0 178 2h-2v-108h-62q-33 -6 -47 -37q61 -4 92 -70q27 -55 52 -110l-72 -72l72 -74q-16 -34 -75 -34h-3h-16.5h-14.5q-72 0 -72 -64v-10l181 -72l-218 -72l183 -73q8 -27 8 -53q0 -98 -117 -201 l-74 74q-31 -29 -89 -111t-97 -115q-61 -49 -137 -49q-51 0 -111 21l-35 36q-31 -41 -47 -41q-10 0 -30.5 40t-51.5 40q-8 0 -16 -4q-102 2 -205 2q-117 8 -157 107q-10 25 -11 43z" />
<glyph unicode="K" d="M313 1401q0 45 39 61l-37 35q49 37 115 37q43 0 143.5 -24.5t157.5 -24.5q43 0 84 12q-4 -25 -78.5 -41t-74.5 -59q0 -18 10 -43l71 -70l35 35l72 -178q12 -1 23 -1q131 0 186 107q39 109 78 217q54 106 187 106q12 0 24 -1l391 -107q-18 -82 -127 -168 q-92 -72 -185 -145q-96 -86 -96 -176q0 -39 17 -80q-10 -27 -84 -82q-63 -47 -64 -88q0 -35 41 -80q31 14 35 47v60q20 -6 98 -48q57 -30 102 -30h3q23 0 47 6l143 -285q-37 39 -113 39q-139 0 -139 -2h2q-14 -33 -14 -55q0 -57 104 -58q18 0 65.5 3.5t70.5 3.5 q96 0 131 -37l-72 -107l213 -143h3q0 -2 -249 -2q-139 0 -217 39q-14 -39 -59 -39q-83 0 -83 2h1q-179 212 -179 369q0 12 1 24q-14 29 -48 35h-59q2 39 -39 78q-35 33 -67 65q-86 -45 -103 -141l-4 -180q-43 35 -108 35q-63 0 -107 -35l-35 -35q35 -39 113 -39q139 0 139 2 h-2v-106h-250q2 73 -69 73h-2h-31q-23 -2 -33 -2q-59 0 -78 35l-37 428h-1q0 -2 120 -2q66 0 96 37q-31 39 -96 39q-120 0 -120 -2h1v248h-1q0 -2 83 -2q47 0 62 38l-144 107q25 18 95 29q61 8 84 43q-18 16 -48 73q-27 47 -59 68h-72v-1q-2 0 -2 83zM1206 324 q106 -37 117 -37q38 0 61 37h-178zM1454 1354h107v108zM1739 1569h108v-37z" />
<glyph unicode="L" horiz-adv-x="1441" d="M88 199q0 80 94 96q90 8 178 14q96 8 97 66q0 18 -8 41l-107 -37v-1q2 0 2 83q0 47 -37 61h-59q-35 -6 -47 -35v-36q-55 18 -68 100q-4 25 -4 149q25 -4 49 -4q154 0 164 111q-10 59 -86 90q-63 27 -127 51v16q0 115 82 171q57 35 203 63q-47 47 -95 92q-66 63 -129 64 q-31 0 -61 -13q10 45 102 93q76 40 76 110v10h-2q0 2 176 2q96 0 146 -38q-12 -70 -127 -76q-127 -6 -158 -66q33 -37 111 -37q10 0 32 2h33q76 0 109 -36v-142q-70 35 -127 35q-63 0 -160 -59q-109 -68 -176 -82q57 -76 184 -76q29 0 90.5 4t89.5 4q35 0 64 -4l-72 -72 q115 -18 115 -147q0 -29 -7 -91.5t-7 -92.5q0 -35 6 -60h-60q-33 -6 -47 -35q-6 -18 -6 -36q0 -33 31 -74q41 -53 47 -68q244 111 612 111q67 0 135 -4q4 -31 4 -51q0 -94 -110 -127q-27 -8 -51 -9q-29 0 -75 12.5t-65 12.5q-51 0 -94 -51q35 -39 111 -39q139 0 139 2h-2 v-107h-1067q-41 86 -41 140z" />
<glyph unicode="M" d="M195 924q0 31 4 63h-1q0 -2 103 -2q55 0 76 37q-20 39 -76 39q-103 0 -103 -2h1v71q57 0 59 -2q33 -4 47 -34q37 25 37 63q0 23 -14 60q-10 29 -23 55l107 35q-2 -6 -2 -13q0 -12 39 -57q18 16 47 74q25 49 59 67q-45 39 -57 39q-8 0 -15 -2v35q6 2 15 2q12 0 57 -37 q6 -1 12 -1q31 0 83 16q62 20 93 20q51 0 97 -35l71 -72l-143 -71q250 -68 285 -498l34 -37q27 51 54 101q20 44 20 86q0 14 -2 28q57 57 90 238q33 190 88 260q4 0 236 47q156 31 266 31q53 0 103 -6v-107q-29 8 -54 8q-50 0 -108 -59q-57 -57 -119 -57h-4q41 -98 153 -172 q127 -84 168 -148q-41 -35 -41 -96q0 -21 5 -45q18 -82 36 -166q1 -9 1 -18q0 -86 -72 -138q75 -25 75 -134q0 -30 -5 -85t-5 -82q0 -30 6 -55h-59q-35 -4 -47 -35q45 -39 57 -39q6 0 13 4v-37l-70 72q-33 -78 -133 -78q-82 0 -152 43q-74 72 -74 260v80q2 53 3 80 q0 143 -35 219q-82 -137 -119 -288q-29 -158 -59 -316q-23 12 -48 12q-37 0 -98 -43t-82 -43q-37 0 -57 74q-41 -14 -72 -14q-61 0 -86 65q-10 31 -22 142q-10 92 -35 127l-107 284l-34 -497h1q0 2 -120 2q-66 0 -94 -37q16 -37 106 -37q-37 -10 -119 -45q-55 -25 -98 -25 q-55 0 -139 35l106 72q-14 29 -47 35h-59v178q6 -2 14 -2q12 0 57 37q-45 39 -57 39q-8 0 -14 -3q-2 6 -2 13q0 12 36 59q-36 14 -36 58q0 85 2 84v-1h-1q0 -2 83 -2q45 0 61 37h-9q-138 0 -138 187zM270 1591h213q-14 -39 -106 -39q-94 0 -107 39zM342 524q37 -76 111 -96 q119 -35 137 -45v70q-27 -27 -58 -27q-37 0 -96 43q-70 47 -94 55zM342 846l213 -109l-72 72zM412 1130l71 -71l-34 -37h106v7q0 47 -51 67q-90 33 -92 34zM1694 489zM1907 1200q17 107 66 107h5v-107h-71z" />
<glyph unicode="N" horiz-adv-x="1845" d="M197 1288q4 47 4 68q0 27 -4 45q98 184 393 184q51 0 104 -6q70 -137 230 -352q135 -178 270 -359q8 25 8 68q0 35 -9 123t-9 133q0 195 151 209q-14 31 -47 37h-59v35q33 -16 201 -27q127 -8 155 -80q12 31 45 35h62q20 -35 20 -74q0 -18 -6 -52t-6 -50q0 -39 26 -72 q-73 -33 -73 -115v-2q0 -59 39 -96l34 -37q-106 -23 -106 -117q0 -18 4 -54t4 -52q0 -90 -115 -96l-34 -37l-72 71l-72 -106q63 -41 160 -41q96 0 160 41v35q8 4 14 4q12 0 57 -39h-59q-33 -6 -47 -35q10 -27 68 -47q39 -12 39 -45q0 -6 -1 -14l-71 -72l37 -37l-392 -69 q55 -37 166 -37h47q33 2 48 2q110 0 165 -37q-57 -78 -208 -78q-96 0 -289 41l-357 463q33 35 33 59q0 20 -55 62q-50 38 -50 84q0 5 1 10q-6 -2 -13 -2q-12 0 -57 37q-39 -14 -39 -62q0 -81 2 -81v1h1q0 2 -83 2q-45 0 -59 -39q12 -18 92 -67q63 -37 64 -86q0 -27 -15 -59 h-59q-33 -6 -47 -35q-2 -8 -2 -15q0 -12 39 -57l34 35q37 -10 37 -82q0 -132 -2 -132v1q-6 -2 -12 -2q-12 0 -57 37q-39 -45 -39 -58q0 -6 2 -14l-142 109q-27 -6 -30.5 -41t-20.5 -35q-8 0 -20 4q-29 -4 -51 -4q-90 0 -127 110v107q88 0 106 37q2 6 2 12q0 12 -37 57h-71 v107h-1q0 -2 103 -2q55 0 76 39q-48 73 -137 73h-2q-18 0 -39 -2v107h-1q0 -2 103 -2q55 0 76 37q2 6 2 14q0 12 -37 57q-39 -16 -64 -16q-47 0 -55 76q-12 100 -24 119l71 69q-75 10 -75 103q0 22 4 69zM1335 1579h-2q0 2 158 2q88 0 129 -37v-71q-32 34 -114 34h-5h-21.5 h-21.5q-109 0 -123 72z" />
<glyph unicode="O" horiz-adv-x="1990" d="M215 608q0 23 16.5 68t16.5 67q0 39 -31 74l109 70q-14 31 -47 37h-62v106q90 0 109 35q-37 35 -37 80q0 37 26 88q23 41 45 82q276 246 535 250q-2 -8 -2 -15q0 -12 37 -57l71 106q-2 -6 -2 -14q0 -12 37 -57l37 37v-12q0 -66 64 -87q66 -14 133 -26q78 -23 88 -90 l141 108q2 -8 2 -14q0 -12 -37 -58q20 -38 73 -38h3q103 0 103 2h-1q-2 -31 -55 -43q-74 -18 -88 -27q-27 70 -74 70q-29 0 -89 -35t-87 -35q-6 2 -12 2q-12 0 -57 -39q92 -37 266 -37q269 0 269 2h-3l72 -178q-12 -6 -27 -6q-23 0 -63.5 19.5t-53.5 19.5q-31 0 -34 -68 q29 -29 88 -37q70 -8 88 -16q37 -20 37 -90v-72h2q0 2 -158 2q-86 0 -129 -37q22 -36 75 -36h3q102 0 102 2h-2q-2 -8 -2 -15q0 -12 39 -57h70q-33 -201 -177 -356h2q0 2 -176 2q-96 0 -147 -37q18 -37 106 -37q-2 -6 -2 -12q0 -12 39 -58h70v-37q-88 0 -107 37 q-10 -51 -59 -65q-61 -16 -82 -43q-78 23 -156 45q-93 26 -156 26h-5q-82 0 -146 -34q-66 -76 -149 -76q-14 0 -29 4l-106 143q-1 0 -1 -1q0 -3 83 -3q63 0 63 53q0 10 -39 58q-41 0 -108.5 72.5t-98.5 72.5q-41 0 -78 -76l-143 179l37 36q-39 35 -39 76zM360 602 q57 -35 168 -35h43q29 2 43 2q147 0 209 -73v-60q-6 -33 -35 -47q23 -39 52 -39q18 0 54 21.5t54 21.5q29 0 53 -39l35 35h60q35 -6 47 -35q6 4 43 45q27 29 49 29q8 0 14 -2q-45 33 -45 53q0 16 46 34.5t46 35.5q0 20 -47 53q37 66 37 141q0 63 -33 179q-35 123 -39 180 q14 29 48 35h59h-107q-36 44 -36 56q0 7 2 15q-51 -35 -142 -35q-12 0 -24 1q-88 8 -174 18q-18 2 -32 2q-51 0 -56 -23q39 -12 39 -38q0 -33 -52 -76q2 0 13 8v2q2 0 2 -213q0 -143 -37 -215h1q0 -2 -83 -2q-47 0 -62 37q2 -6 2 -12q0 -12 -36 -60q-90 0 -107 37 q-45 -39 -57 -39q-8 0 -15 2z" />
<glyph unicode="P" horiz-adv-x="1708" d="M143 1188q0 6 2 14q14 29 48 35h61h-1q0 -2 177 -2q123 0 178 37q-45 39 -57 39q-6 0 -12 -2l69 71q-14 6 -67 45q-41 31 -74 31q-18 0 -35 -6q2 8 2 14q0 12 -39 58q-16 -6 -67 -47q-41 -31 -76 -31q-16 0 -35 6l-35 106h996q4 -16 -15.5 -51t-19.5 -49q0 -25 35 -41 q72 47 120 47q41 0 82 -35q41 -43 82 -84l72 -106h1q0 2 -83 2q-45 0 -59 -37q82 0 120 -74q29 -70 58 -141v-69h1q0 2 -83 2q-47 0 -62 -39v-70q-33 37 -73 37q-20 0 -57 -13.5t-54 -13.5q-39 0 -65 60l-107 -107l72 -72q20 39 76 39q103 0 103 -2h-1l35 -37q14 39 61 39 q83 0 83 -2h-1q-72 -92 -213 -133q-94 -29 -280 -45q-213 -20 -289 -35q-39 -31 -39 -96q0 -120 2 -120v1q-31 74 -170 74q-23 0 -43 -2q-35 -18 -35 -107q6 -4 43 -45q25 -29 49 -28q6 0 15 2q8 -18 8 -35q0 -37 -47 -76q-59 -51 -68 -67q-84 0 -168 -2q-83 5 -83 89 q0 9 1 19q2 8 2 14q0 12 -39 58q39 14 39 61q0 83 -2 83v-1q88 0 107 35q-53 8 -78 37q-14 16 -29.5 65.5t-36.5 75.5q8 -2 15 -2q12 0 57 37q-2 35 -29 119q-24 75 -24 113q0 95 125 124q2 6 2 15q0 12 -37 57h-72q-2 6 -2 12q0 12 37 60q-4 6 -45 43q-29 25 -29 49z M254 133l106 -35v35h-106zM717 918h106q37 -47 37 -58q0 -8 -2 -14h143l-36 35q33 82 147 100q8 2 209 6q-39 -12 -76 -12q-86 0 -212 108.5t-212 108.5q-49 0 -104 -27v-247z" />
<glyph unicode="Q" horiz-adv-x="1855" d="M96 950q0 190 125 348q74 92 273 252q115 39 249 39q137 0 371 -51q250 -53 340 -59q2 -6 2 -13q0 -12 -37 -57q18 -29 109 -41q76 -12 76 -59q0 -18 -7 -43q-20 2 -38 2q-90 0 -140 -74q29 -16 33 -109q2 -69 65 -69h9l71 71q-38 44 -38 57q0 7 2 15q37 16 63 17 q47 0 57 -76q12 -104 23 -119l-37 -35q47 -39 57 -39q9 0 15 2v1q2 0 2 -83q0 -45 -37 -59q2 -23 2 -49q0 -182 -74 -307h-59q-33 -6 -47 -35q4 -43 70.5 -107.5t70.5 -107.5q-72 41 -178 41q-104 0 -176 -41q-12 -92 -64 -92q-14 0 -53 12t-59 12q-45 0 -74 -39h2 q0 -2 -268 -2q-176 0 -269 39l-69 176l-109 -69q-92 88 -123 131q-57 76 -57 157q0 14 2 31l37 35l-107 72l213 71l-213 107q88 0 107 37q-14 29 -47 34h-60q-6 39 -6 76zM635 803q29 -43 59.5 -150.5t61.5 -148.5q45 -63 133 -64q31 0 67 6l-143 144q0 37 64 37q-8 0 8 -2 l-35 37q-2 39 37 77q35 33 69 64q35 41 64 41q27 0 70.5 -54.5t78.5 -58.5q20 84 21 150q0 106 -55 206q-115 143 -232 144q-59 0 -125 -37q-37 -59 -73 -121q-41 -74 -41 -123q0 -23 8 -41v-59q-6 -33 -37 -47zM850 340l319 -72v72q-20 6 -41 6q-35 0 -98 -19.5t-92 -19.5 q-49 0 -88 33z" />
<glyph unicode="R" horiz-adv-x="1720" d="M178 319q0 18 2 35v144q23 -10 41 -11q35 0 60 48q35 63 43 69q8 23 8 39q0 43 -60 64q-80 29 -92 41v141q8 2 15 2q12 0 57 -37q39 20 39 76q0 103 -2 103v-1q-6 4 -43 45q-27 27 -49 27q-8 0 -17 -2v106q28 -26 56 -26h2q23 0 59 24q45 33 61 39v107q61 2 123 4 q63 10 92 67q-27 35 -107.5 36t-107.5 34q16 39 70 39q31 0 123 -20.5t143 -20.5q78 0 127 39q49 63 94 63q37 0 126 -84t165 -84q53 0 115 33q6 -4 43 -45q25 -29 49 -29q6 0 14 2q2 -6 3 -12q0 -12 -39 -57q25 -37 63 -37q25 0 59 14q29 10 56 23l-72 -72q90 -121 90 -194 q0 -41 -18 -127q-14 -4 -29 -4q-39 0 -107.5 56t-107.5 56q-37 0 -76 -37q25 -29 68 -45q37 -14 74 -26v-142h2q0 2 -103 2q-55 0 -78 -36v-7q0 -67 72 -67h14.5h14.5q61 0 78 -35q123 39 149 39q14 0 29 -2q2 -39 -39 -78q-33 -33 -68 -66q74 -39 92 -53q31 -29 52 -88 l-179 -106l107 -109q37 47 37 60q0 6 -2 12h37v-14q0 -82 -68 -125q-61 -39 -168 -39q-109 0 -192 36q-74 90 -74 228q0 27 2 57l37 35q-37 18 -37 106l37 37q-49 53 -146 54q-57 0 -145 -21q-68 -16 -137 -33v-215h1q0 2 -83 2q-45 0 -60 -37q14 -36 58 -36h2q83 0 83 2h-1 q-25 -76 -137 -76q-27 0 -82.5 4t-81.5 4q-31 0 -56 -4q4 6 4 12q0 12 -38 60q-39 -47 -39 -60q0 -6 4 -12q-23 -10 -39 -10q-72 0 -72 116zM643 1139q78 -2 96 -92q20 -102 82 -123q76 25 152 49q86 35 133 94q-10 145 -268 145q-35 0 -86 -4q1 -8 1 -16q0 -57 -81 -57h-2 q-14 0 -27 4zM680 1280l319 106l-34 37q-8 -73 -104 -73h-3q-12 0 -37 2h-35q-98 0 -106 -72z" />
<glyph unicode="S" horiz-adv-x="1785" d="M285 1174q0 25 8 57l143 69l-106 109q61 74 211 74q18 0 59 -2t62 -2q109 0 165 37q-2 -8 -2 -15q0 -12 37 -57q39 14 39 61q0 81 -2 81v-1l-72 72q213 -4 310 -25q180 -39 260 -153h59q33 -6 47 -35v-107h1q0 2 -83 2q-63 0 -63 -51q0 -12 39 -57l178 35v-107 q-8 -2 -14 -2q-12 0 -58 37q-32 -40 -83 -40q-17 0 -36 5q-59 18 -118 35q-5 1 -11 1q-50 0 -71 -71l-107 70l213 72q-58 69 -145 69h-2q-51 0 -158.5 -33.5t-157.5 -35.5q-36 -34 -36 -72q1 -34 39 -102q33 -59 33 -99q0 -6 -1 -12q31 4 58 4q96 0 226 -81t218 -81 q49 0 104 17q-2 -8 -2 -15q0 -12 37 -57h72v-106q-57 0 -59 -3q-35 -4 -48 -34q20 -37 76 -37q104 0 104 2h-1q2 -8 2 -15q0 -12 -39 -57q31 -14 35 -47q2 -2 2 -59q-31 -40 -76 -40q-16 0 -33 5q-53 16 -104 35h-8q-49 0 -64 -72q29 -37 94 -37q120 0 120 2h-1v-11 q0 -136 -141 -136q-20 0 -63.5 2t-65.5 2q-117 0 -158 -70q47 -39 59 -39q6 0 13 2q-27 -37 -105 -37q-86 0 -180 37q-2 8 -2 15q0 12 39 57q-14 31 -47 35h-62q-37 -45 -37 -58q0 -6 2 -12h1q0 -2 -103 -2q-55 0 -76 37q-45 -39 -57 -39q-6 0 -14 4v70h-1q0 -2 82 -2 q47 0 62 39q-37 29 -113 34q-94 8 -116 17q-63 23 -93 90q-20 25 -53 96l-53 117q-2 -6 -2 -12q0 -12 39 -58q45 78 190 78q117 0 236 -43q-2 -14 -2 -26q0 -59 49 -86q25 -14 100.5 -30t102.5 -36q16 41 92 80q65 33 65 75q0 26 -16 58q-90 76 -227 76q-27 0 -58 -4 q4 8 4 14q0 12 -39 57q-16 -35 -41 -34q-14 0 -49 18t-53 16q-8 72 -96 72h-33q-23 -2 -35 -2q-96 0 -121 74l179 106q-12 29 -46 35h-61v72q8 -2 14 -2q12 0 58 36q-14 31 -47 35q-2 2 -60 2q-37 -18 -37 -108q-6 12 -71 69q-43 39 -43 89z" />
<glyph unicode="T" horiz-adv-x="1998" d="M281 1219v368q49 6 106 6q70 0 204 -10t195 -10q92 0 160 14l74 -74q63 37 221 38t221 36q0 -51 2 -61q6 -35 35 -49q31 14 37 49v61h221v-74q-10 -2 -26 -2q-12 0 -39 2.5t-39 2.5q-57 0 -80 -39l147 -185q-53 -25 -189 -37t-190 -36q-88 -41 -100 -148q-10 1 -20 1 q-61 0 -93 -44q-38 -51 -71 -104q-8 -29 -8 -50q0 -63 77 -63q14 0 41 2t39 2q78 0 78 -65q0 -20 -6 -48q-16 -2 -35 -2q-18 0 -54 2.5t-52 2.5q-80 0 -117 -39q0 -53 2 -64q6 -35 35 -49h37l-111 -111l37 -36h-5q-41 0 -89 -60q-52 -64 -101 -65q-29 0 -63 14v147h-1 q0 -2 85 -2q65 0 65 54q0 12 -39 59h-110q2 14 2 33q0 14 -3 45t-3 45q0 70 41 100q-29 14 -37 47v64q51 0 61 2q35 6 49 35q-14 31 -49 37h-61v13q0 27 6 71q8 55 8 77q0 97 -120 97h-7q-74 -41 -184 -41q-109 0 -184 41zM762 37q29 20 35 113q6 71 73 71h2q4 1 8 1 q23 0 54 -20q37 -24 57 -24q14 0 29 6q33 14 33 29q0 8 -19.5 29.5t-19.5 36.5q0 8 6 16q18 -4 45 -4q20 0 64.5 5t66.5 5q90 0 119 -80q-4 -76 -90 -76h-37q-25 2 -39 2q-68 0 -92 -36q27 -37 110.5 -38t110.5 -36v-37q-88 39 -258 39q-37 0 -105.5 -2t-97.5 -2 q-33 0 -55 2z" />
<glyph unicode="U" horiz-adv-x="1746" d="M100 694v5q0 51 111 69q14 -29 37 -29t57 27l53 39q-51 27 -100 53q-59 27 -111 27q-23 0 -47 -6v444q6 -2 13 -2q14 0 61 39q-29 14 -35 47q-2 10 -2 63q46 -32 119 -32h4q53 0 154.5 19.5t140.5 19.5q113 0 113 -121q0 -45 -15 -107v-518h-61q-35 -6 -49 -37 q70 -104 141 -207q94 -131 211 -131q27 0 53 6q55 53 109 105q63 63 76 117l-37 37l73 73l-36 37q12 -2 22 -2q51 1 128 97q72 90 137 89h10l-82 70q-55 43 -99 43q-41 0 -80 -37h-36q-6 12 -7 27q0 25 20.5 66.5t20.5 54.5q0 33 -71 37q20 39 40.5 77.5t61.5 38.5 q20 0 47 -6q16 -18 47 -18q59 0 138 55q-45 39 -134 39q-20 0 -61 -2t-59 -2q-25 0 -43 2q-2 6 -3 14q0 12 39 60q-35 16 -34 43q0 14 19.5 50t14.5 54q27 -2 58 -2q27 0 82 2t82 2q121 0 186 -39q27 4 31 41t22 37q8 0 21 -4q-16 -51 -17 -100q0 -33 11.5 -96.5 t11.5 -104.5q0 -33 -6 -68h-64q-33 -6 -47 -37q31 -14 37 -49v-61l-37 -37q6 -6 45 -47q27 -31 49 -31q8 0 17 4v-112q-8 4 -15 4q-12 0 -59 -41q6 -16 6 -31q0 -43 -61 -70q-82 -37 -92 -47l73 -73l-147 -74q49 -31 125 -47q66 -14 133 -27q-10 -12 -119 -53 q-92 -35 -102 -94q23 -37 65 -37q25 0 62 14q29 10 57 23q-57 -258 -481 -332q-25 6 -68 6q-33 0 -117 -7t-129 -7q-190 0 -239 118q14 31 92 41q56 7 56 57q0 6 -1 13l-110 111q-31 -25 -97 -119q-39 -55 -125 -66q-18 27 -18 52q0 33 46 79.5t46 71.5q0 27 -37 55 q-51 -63 -90 -63q-29 0 -80 49t-88 51v74q20 -6 43 -6q106 0 142 117q-53 29 -105 55q-46 20 -89 20q-14 0 -28 -2zM322 1176q8 2 20 2q10 0 31.5 -2t32.5 -2h2q45 0 61 38q-14 6 -27 7q-24 0 -60 -24q-30 -20 -51 -20q-5 0 -9 1zM358 1618h222q-14 -41 -111 -41 q-96 0 -111 41zM911 215q16 -43 131 -43q42 0 91 6q-12 2 -31 2q-14 0 -45 -2t-47 -2q-68 0 -99 39z" />
<glyph unicode="V" horiz-adv-x="1763" d="M143 1186q2 27 93.5 39t91.5 45q0 23 -37 63h-74q-6 23 -6 43q0 109 117 142l147 -148q39 47 39 60q0 8 -2 14l111 -74q4 -147 71 -340q57 -162 113 -325l184 112q-47 39 -59 39q-6 0 -14 -2q29 141 55 285q47 170 166 170q35 0 75 -13q39 47 39 60q0 6 -2 14h-12 q-62 0 -82 37q-10 16 -18 92q-6 63 -37 92h149q-4 -6 -4 -14q0 -12 41 -59q39 47 39 59q0 8 -2 14q6 2 14 2q12 0 60 -39q25 41 53 41q18 0 56 -21.5t57 -21.5q30 0 55 39q-20 -49 -36.5 -164.5t-37.5 -164.5q-35 -82 -110 -113l37 -37l-111 -147q16 -43 16 -91 q0 -74 -64 -226q-63 -147 -63 -233v-5q-68 -27 -92 -146q-29 -150 -57 -186h-9q-50 0 -167 -35q-137 -39 -201 -39q-125 0 -176 111q-27 27 -53.5 56.5t-26.5 59.5q0 14 6 31l37 37q-47 39 -59 39q-8 0 -15 -2l111 110q-51 78 -146 78q-18 0 -38 -4l73 74q-76 41 -94 57 q-33 29 -53 92q8 -2 15 -2q32 0 60 36q34 44 33 97q0 80 -71 91q63 2 125 2q68 12 96 71q-25 39 -55 39q-18 0 -55.5 -21.5t-57.5 -21.5q-29 0 -53 41q-18 -37 -43 -37q-14 0 -50 19.5t-55 17.5zM991 631q20 4 55 -15.5t52 -19.5q25 0 41 35l39 -37z" />
<glyph unicode="W" horiz-adv-x="2322" d="M119 1540q0 25 6 47q43 6 88 6q88 0 217 -30q168 -43 211 -50l-111 -73q14 -29 50 -35q10 -2 61 -2q-20 -39 -20 -82q0 -57 52 -169t52 -173q0 -68 -47 -129l110 -111q6 27 50 133q30 78 30 136q0 33 -6 63q8 -2 15 -2q12 0 59 39q-39 25 -39 53q0 20 21.5 57t21.5 56 q0 31 -41 55q18 37 82 37h15.5h15.5q72 0 72 62q0 6 -1 12q8 2 15 2q12 0 61 -39q39 16 39 63q0 10 -2 32t-2 32q0 12 2 20q82 39 137 39q80 0 105 -90q10 -39 16 -186q6 -123 37 -168l-37 -37q61 -33 94 -145q27 -94 54 -187q20 27 35.5 104.5t29.5 106.5q29 49 90 49 q12 0 29 -2l-111 74l185 74q-14 39 -64 39q-10 0 -31.5 -2t-31.5 -2q-12 0 -21 2l37 110q12 -2 47 -42t66 -40q16 0 34 8q59 29 60 66q0 20 -25 57q-29 45 -35 62h-147q27 6 59 67q31 55 74 56q23 0 51 -13q8 -180 221 -295l-36 -36q47 -39 59 -39q8 0 14 2l-110 -74 q47 -39 59 -39q8 0 14 2q-20 -53 -36.5 -178t-36.5 -176q-33 -90 -111 -127q-6 -14 -6 -29q0 -27 22.5 -71t22.5 -62q0 -33 -39 -59q-6 -2 -14 -2q-12 0 -60 39q-12 -53 -63 -66q-63 -16 -84 -45q147 -37 184 -184q-20 -4 -64 -40t-69 -36q-27 0 -51 39q-49 -74 -125 -74 q-45 0 -140 37t-141 37q23 27 130 57q86 25 92 90q-41 -8 -72 -8q-92 0 -137 68q-23 37 -56 153q-29 109 -67 156v76q6 -4 12 -4q14 0 62 40l-111 74q-139 -354 -149 -702q-43 -61 -136 -62q-14 0 -41.5 2t-42.5 2q-47 0 -75 -16q-20 -12 -41 -12q-25 0 -66 25.5t-59 25.5 q-29 0 -56 -39q-111 53 -111 262q0 16 1 33q6 -2 14 -2q12 0 60 39q2 8 2 14q0 12 -39 60h-74q-6 23 -6 43q0 41 31 92q43 68 49 88q-16 39 -64 39q-10 0 -31.5 -2t-31.5 -2q-12 0 -21 2q12 23 13 45q0 31 -26 79t-26 70q0 33 39 64q-63 39 -94 163q-27 102 -53 205l74 74 q-117 23 -117 174zM936 1034h111v74l-74 -74l-37 37v-37z" />
<glyph unicode="X" horiz-adv-x="1957" d="M199 66q0 104 153 245q8 -1 15 -1q43 0 86 38q31 27 82 96.5t75 87.5q-47 39 -59 39q-8 0 -14 -2q116 108 116 254q0 57 -18 162q-20 119 -25 176q-25 33 -88 43q-74 10 -96 31v74q8 2 20 2q10 0 32 -3t32 -3q49 0 63 41q-22 38 -76 38h-3q-12 0 -39 -2t-39 -2 q-16 0 -27 2v37l258 -37q-2 -8 -2 -14q0 -12 39 -59l111 110q-47 33 -158 45q-129 16 -162 29q-78 29 -86 111q143 -8 289 -17q164 -25 190 -131l-37 -37q14 -29 50 -35q10 -2 61 -2l-37 -110q59 0 179 -37t178 -37q96 0 161 74q-2 8 -2 20q0 10 2 32t2 32q0 47 -39 63 q-40 -46 -40 -58q0 -9 4 -15q-23 -10 -39 -11q-37 0 -61.5 60.5t-49.5 60.5q41 47 41 60q0 6 -2 14h74q-4 -8 -4 -14q0 -12 41 -60q31 14 34 47q2 4 2 64h111q-8 -25 -8 -43q0 -51 80 -64q92 -14 112 -41q2 -78 -73 -78q-10 0 -33 2.5t-35 2.5q-59 0 -80 -37l74 -111 q-59 0 -64 -2q-33 -4 -47 -35q31 -14 35 -49q2 -4 2 -63q-20 -4 -45 -5q-23 0 -66.5 5.5t-64.5 5.5q-90 0 -121 -80q23 -39 80 -39q12 0 39 2t41 2t27 -2q-20 -61 -54 -92q-18 -14 -96 -55l113 -74l-334 -74q45 -51 113 -51q10 0 30 2h31q51 0 86 -25q29 39 98 39 q14 0 45 -2t48 -2q16 0 30 2l-74 -74l148 -110q-16 -2 -37 -2q-16 0 -52 2t-54 2q-78 0 -115 -39v-37q51 -39 151 -39q23 0 68 2t66 2q27 0 47 -2q-2 -8 -2 -14q0 -12 39 -59q12 2 22 2q47 0 76 -72q43 -107 49 -115h-147q2 6 2 13q0 14 -39 61q-84 -117 -295 -117 q-37 0 -74 6q-57 98 -115 197q-78 133 -145 209l-221 -369q-39 6 -80 6q-68 0 -192 -25.5t-193 -25.5q-45 0 -88 8q-6 25 -6 50zM610 459l185 -37q-6 2 -15 2q-12 0 -59 -39q6 37 -19.5 56.5t-64.5 19.5q-14 0 -27 -2z" />
<glyph unicode="Y" horiz-adv-x="1894" d="M260 1278q29 27 35 80q2 12 4 88q0 106 72 127q-2 -74 112 -123q129 -55 148 -98l110 73q74 -27 74 -125q0 -14 -2 -45.5t-2 -46.5q0 -111 115 -116q47 27 73 90q37 86 45 96q29 38 86 38q8 0 17 -1q-29 14 -35 47q-2 10 -2 63q53 0 61 2q35 6 50 35v111l110 -111 q31 14 37 47v64l334 -37q6 -18 6 -33q0 -41 -61 -67q-82 -37 -95 -47q47 -41 62 -41q6 0 12 4q6 -18 6 -31q0 -47 -65 -47q-10 0 -35 2t-37 2q-70 0 -90 -37l-37 37q-34 -76 -92 -76h-8q-57 20 -117 39q-17 4 -33 4q-48 0 -82 -41q61 -63 215 -69q170 -8 228 -43q2 -9 2 -17 q0 -55 -84 -80q-45 -14 -189 -24q-104 -10 -104 -31q0 -29 153 -106h74q1 -16 1 -30q0 -118 -87 -155q-6 -2 -211 -37q-137 -23 -182 -110q33 -150 256 -150q31 0 76 2q4 -55 -111 -73l-37 36q-39 -47 -39 -59q0 -53 64 -53q87 0 87 2h-1q-6 -33 -111.5 -38t-105.5 -42 q0 -25 33 -68h73l-368 -36q-25 59 -25 135q0 78 33 227.5t33 212.5q0 190 -226 236l111 73q-16 39 -64 39q-10 0 -31.5 -2t-31.5 -2q-12 0 -21 2q0 23 60.5 46.5t60.5 60.5q0 18 -10 41q-31 41 -100 41q-14 0 -45 -2.5t-45 -2.5q-18 0 -33 2v74q16 2 37 2q16 0 52 -3t54 -3 q80 0 117 41l-111 111q-29 -6 -33 -43t-20 -37q-8 0 -22 6h-148zM1036 428v74q4 1 8 1q22 0 54 -21q37 -23 59 -23q12 0 27 6v-37h-148z" />
<glyph unicode="Z" horiz-adv-x="1937" d="M330 319q0 37 51 105q66 84 80 113q18 -8 37 -9q35 0 75 33q55 41 72 49q-8 10 -8 27q0 39 61 127q80 113 95 141q13 -2 25 -2q64 0 91 45q23 59 45 119q29 74 97 96q-14 31 -47 37h-64q-16 84 -106 113q-76 20 -152 41q-74 35 -74 131v10h-37q-6 37 19.5 57.5t64.5 20.5 q14 0 27 -2q36 -76 112 -76h11q80 18 160 39q24 4 46 4q69 0 113 -43q63 63 125 64q45 0 129 -48.5t131 -48.5t97 33q115 -18 110 -74l-37 -37q76 -51 76 -143q0 -18 -2 -41l-111 -74q2 8 3 17q0 23 -31 49q-41 39 -45 45l-148 -74q14 -39 62 -39q10 0 32.5 2t32.5 2t21 -2 l-297 -73q25 -75 69 -75q4 0 9 1q45 18 90 37q14 4 27 4q39 0 65 -41q-14 -53 -78 -117q-53 -51 -108 -104q-14 -2 -35 -2q-16 0 -52 2t-55 2q-80 0 -117 -39q16 -39 64 -39q10 0 31.5 2t31.5 2q12 0 21 -2q-51 -57 -105.5 -115.5t-152.5 -68.5q-6 -33 -111.5 -38 t-105.5 -42q0 -25 33 -68q47 39 59 39q8 0 14 -2l37 -37h518q-1 -7 -1 -13q0 -49 57 -56q78 -10 92 -43l221 -148l-148 -74q-35 59 -67 119q-49 84 -119 84q-33 0 -74 -18q-51 -147 -200 -148q-45 0 -142.5 16.5t-144.5 16.5q-113 0 -176 -70q-14 6 -41 7q-20 0 -73.5 -5.5 t-84.5 -5.5q-127 0 -170 78q8 -2 19 -2q39 0 122.5 60.5t133.5 60.5q47 0 94 -45q31 14 37 49v61q-59 41 -187 41q-29 0 -78 -2t-67 -2q-23 0 -37 2v-75q-57 37 -57 79zM350 1421h148v-37zM350 1571h148v-12q0 -60 -39 -60q-29 0 -66 27.5t-43 44.5z" />
<glyph unicode="a" horiz-adv-x="1671" d="M70 293q338 53 436 217q-14 31 -49 37h-60v35h72q-2 -6 -2 -13q0 -12 39 -59q6 -2 12 -2q12 0 60 39q-23 49 -48 100q-33 55 -81 55q-23 0 -52 -10l-73 217h61q33 8 47 35v62q-6 33 -35 47h-37q-8 25 -8 43q0 59 91.5 85.5t91.5 59.5q0 25 -29 66q-47 -39 -60 -39 q-6 0 -11 5t-5 11q0 12 39 59q6 2 14 3q12 0 58 -39q39 18 39 45q0 25 -37 61.5t-37 38.5q23 33 71 33q21 0 46 -6q119 -29 125 -29q48 5 48 86q0 12 -1 25h-2q0 2 178 2q98 0 149 -39v-146q-6 4 -14 4q-12 0 -57 -39q88 -6 138 -54t50 -130q0 -33 -8 -69h2q0 2 -123 2 q-66 0 -96 -39q37 -76 135 -76q25 0 72 4t69 4q29 0 49 -4l74 -326h1q0 2 -122 2q-68 0 -96 -39q-2 -13 -2 -24q0 -57 41 -90q53 -33 104 -66h183l-109 -73q123 -51 127 -56q53 -37 53 -125h-71q8 23 8 39q0 37 -45 62q-66 37 -72 45q-57 -74 -158 -74q-59 0 -192 37 t-195 37q-14 -66 -100 -74q-76 -4 -150 -6q-77 -16 -77 -103q0 -16 2 -35h-72v60q-6 35 -37 49q-16 10 -35 10q-20 0 -53 -24.5t-47 -24.5q-25 0 -45 39q-25 -41 -53 -41q-31 0 -74 56.5t-55 56.5zM143 112h109v-36zM649 365l146 -35v35h-146zM672 715q0 -39 51 -97 q48 -38 116 -38h3.5h2.5q63 0 95 38q-43 152 -43 197q0 31 6 94l-72 72q8 -27 9 -49q0 -59 -84 -117.5t-84 -99.5zM1120 147l363 -35q-16 -37 -75.5 -60t-127.5 -23q-160 0 -160 110v8z" />
<glyph unicode="b" horiz-adv-x="1900" d="M248 399q39 143 182 181q-33 114 -137 114h-2q-20 0 -43 -6v580q8 -2 16 -2q23 0 49 28q37 43 43 47q-12 31 -47 35h-61v74q25 -2 47 -2q94 0 231.5 58.5t210.5 58.5q78 0 164 -43q109 41 252 41q145 0 254 -41q-2 -6 -2 -15q0 -12 39 -57h108q-68 -41 -204 -41 q-137 0 -230 41q-47 -39 -59 -39q-6 0 -15 2l-71 72q-12 0 -118.5 20.5t-178.5 20.5q-35 0 -66 -4l-37 -37q16 -37 64 -37q83 0 83 2h-1l-180 -74q14 -37 61 -37q85 0 85 2h-1q-4 -8 -4 -14q0 -12 39 -59q121 73 262 73h4q121 0 338 -65q236 -72 338 -80l-109 -109 q44 -38 57 -38h1q8 0 14 2q0 -84 -74 -123q-72 -29 -143 -58h5q69 0 120 -53q16 -16 78 -112q43 -70 88 -89q2 -25 -20.5 -59.5t-22.5 -56.5q0 -14 6 -29q-29 39 -62 39q-27 0 -79 -35t-76 -39q29 -72 110 -74h144q-4 -53 -58.5 -95t-54.5 -89q0 -14 4 -33q-39 -4 -88 -4 q-41 0 -125 5.5t-125 5.5q-176 0 -241 -78q-41 12 -84 12q-39 0 -101.5 -13.5t-85.5 -13.5q-57 0 -92 52q-29 -14 -35 -50q-2 -8 -2 -59q-45 10 -90 23q-57 12 -94 12q-63 0 -104 -35l71 72q-98 31 -98 92q0 29 23.5 83t23.5 77q0 55 -94 73zM322 436h108l35 35zM573 1087 q23 -10 48 -10q29 0 76.5 21.5t68.5 21.5q35 0 61 -33q2 -8 2 -14q0 -12 -36 -57q37 -20 36 -47q0 -25 -36.5 -61t-36.5 -38q31 -20 53 -20q33 0 60.5 48t45.5 48q23 0 58 -39h6q53 0 84 72t84 72h6q-29 27 -47 69q-12 37 -25 76q-68 -27 -258 -45q-168 -16 -250 -64z M827 399q31 -6 64 -6q49 0 149 25q85 18 140 18h10l-37 109q25 45 47 80q16 23 17 28q0 4 -17 27q-23 35 -47 82q14 31 49 35q3 2 60 2h-60q-35 6 -49 35v-72q-29 -14 -113 -94q-68 -66 -135 -66q-35 0 -78 14v-217z" />
<glyph unicode="c" horiz-adv-x="1769" d="M123 764q0 12 39 59q-39 14 -39 62q0 85 2 85v-1q6 -2 14 -2q12 0 58 37q-14 70 -15 118q0 104 88 209q37 55 74 55q16 0 56 -14t69 -14q27 0 53 8q53 31 125 133q55 82 119 82q49 0 119 -33v1q-2 0 -2 -85q0 -47 39 -61l71 72q-29 14 -35 49q-2 8 -2 59q37 39 115 39 q141 0 141 -2h-2q2 -6 2 -14q0 -12 -36 -58q150 -57 299 -114q170 -82 170 -248l-181 -109q39 -47 39 -59q0 -6 -2 -14l-74 73q-27 -6 -30.5 -42t-20.5 -36q-8 0 -20 5q-29 -2 -51 -3q-53 0 -81 25t-48 88l34 35q-74 35 -147 72q-92 39 -160 39t-127 -37q-39 -47 -39 -60 q0 -6 2 -14q-23 -2 -58.5 20.5t-57.5 22.5q-12 0 -27 -6q-37 -27 -37 -58q0 -20 20.5 -62t20.5 -69q0 -14 -4 -28l-109 108q-38 -28 -38 -59q0 -29 35.5 -81t37.5 -77q43 18 70 19q41 0 41 -68v-21.5v-23.5q0 -70 35 -88l-181 -72q6 -4 43 -45q27 -29 50 -29q8 0 16 3v-10 q0 -64 -72 -64h-15h-15q-61 0 -80 -35h10q48 0 59 -37q3 -39 11 -78q6 -32 45 -32q9 0 20 2l37 36l-37 35q0 33 39 37t76 6q32 12 32 52q0 7 -1 14q31 -8 96 -80q59 -66 98 -66q45 0 94 74q35 -12 64 -12q66 0 104 65q16 27 49 127v37q41 -33 90 -33q33 0 101.5 21.5 t109.5 21.5q31 0 62 -10l-37 -254q-6 -2 -12 -2q-12 0 -60 39q-4 -76 -88 -76q-12 0 -36.5 2t-36.5 2q-68 0 -93 -36q51 -39 150 -39q178 0 178 2h-2q-33 -4 -69.5 -82t-88.5 -78q-25 0 -59 14q-101 46 -243 46q-54 0 -115 -7q-317 -35 -340 -35q-178 6 -279 142q7 -1 13 -1 q47 0 55 56q10 76 41 90q-47 39 -60 39q-6 0 -12 -2q-29 -14 -35 -49q-2 -8 -2 -60q-27 -8 -45 -8q-41 0 -61.5 38t-38.5 79l36 35q-53 0 -65 31q-6 14 -7 73.5t-36 77.5l108 72q-14 31 -47 35q-4 2 -61 2q-2 6 -2 12zM776 -10q25 37 131 41q119 4 158 32v-73h-289z" />
<glyph unicode="d" horiz-adv-x="1933" d="M256 532q0 92 43 134l37 36q-47 39 -60 39q-6 0 -14 -2v72q16 -4 31 -4q31 0 59.5 25.5t55.5 52.5q-66 53 -93 100q-4 6 -53 117q8 2 14 2q12 0 60 -39q39 39 88 39q31 0 92.5 -21.5t91.5 -21.5q49 0 88 41q-39 72 -164 72q-25 0 -70.5 -3.5t-66.5 -3.5q-135 0 -135 111 q0 18 2 41q25 33 117 41q80 6 100 67q-14 29 -47 35h-61q43 0 167 37t187 37q102 0 154 -74h71q-2 -6 -2 -12q0 -12 39 -59l109 36q-2 -8 -2 -14q0 -12 36 -59q8 -2 15 -2q12 0 59 39l-108 254q10 1 20 1q70 0 164 -47q121 -59 178 -63l-108 -74q45 -61 157 -71 q147 -12 168 -23q72 -31 72 -146v-12q-10 -73 -80 -73h-2q-27 0 -77 11t-64 11q-31 0 -31 -26q0 -31 37 -105q23 27 45 27q20 0 67.5 -39t86.5 -39q26 0 55 16q-3 -14 -3 -41.5t3 -70.5q1 -17 1 -31q0 -51 -11 -74q-20 -38 -77 -38q-10 0 -22 1h-61q-35 -6 -47 -37 q14 -38 59 -38h2q83 0 83 2h-1q-78 -31 -78 -68q0 -20 42 -67.5t42 -73.5q0 -41 -77.5 -79t-225.5 -50q-211 -16 -246 -23q35 -84 107 -84q20 0 73.5 9.5t86.5 9.5q31 0 59 -9q-133 -147 -510 -147q-53 0 -141 4q2 6 2 12q0 12 -39 60q-20 -6 -66.5 -40t-66.5 -34 q-33 0 -47 74q-39 -47 -39 -60q0 -6 2 -12q-41 -16 -74 -16q-74 0 -139 80q-88 102 -113 116v72q51 0 62 2q33 6 47 35v61q-6 33 -35 47q-39 -47 -39 -59q0 -6 2 -12q-43 23 -43 118zM262 1645h363q-12 -2 -76 -38t-103 -36q-43 0 -75 37l-35 -37zM479 340q53 0 163 -36 t161 -36q88 0 147 72q-102 20 -180 20t-182 -20q-39 47 -39 59q0 6 4 15h-74v-74zM516 920h-2q0 2 178 2q98 0 150 -37v1q2 0 2 -106q0 -55 -39 -78q-6 -2 -12 -2q-12 0 -60 39q-39 -31 -39 -47q0 -10 39 -30.5t39 -49.5q0 -8 -2 -18q-23 -39 -78 -39q-105 0 -105 2h1 l37 -35q20 39 77 39q104 0 104 -3l-1 -1q39 -45 39 -57q0 -6 -2 -15q45 -8 82 -8q74 0 157 43q111 59 160 74l-37 37q-1 7 -1 12q0 35 40 49q59 20 70 47h-37q-39 45 -39 58q0 8 4 14q59 39 119 80q-2 -2 -10 -6l-146 108l72 72q-74 4 -96 86q-33 115 -50 131 q-21 -73 -72 -73q-5 0 -11 1q-59 16 -121 35q-19 5 -37 5q-51 0 -84 -40l37 -36q16 -47 16 -82q0 -74 -72 -107q-41 -16 -149 -33q-96 -12 -121 -32z" />
<glyph unicode="e" horiz-adv-x="1634" d="M240 987q0 25 6 49h-2q0 -2 104 -2q57 0 78 37q-49 76 -141 76q-18 0 -39 -2v188q6 123 45 180q44 68 141 68q15 0 31 -2q193 -145 419 -145h15q39 47 39 59q0 6 -2 14q43 -41 88 -41q51 0 127 58.5t102 58.5q49 0 80 -113h74q-4 -8 -4 -14q0 -12 39 -59h73q6 -25 7 -43 q0 -41 -38 -61.5t-77 -39.5l72 72l-146 109q-39 -45 -39 -58q0 -8 2 -14h-71q2 6 2 14q0 12 -39 58l-160 -74q-86 -51 -92 -143h1q0 2 -106 2q-55 0 -77 -39v-144l653 -73v-72h1q0 2 -106 2q-55 0 -77 -39q27 -33 88 -43q70 -10 94 -29q-6 -33 -98.5 -40t-92.5 -62 q0 -18 9 -43q-30 19 -90 19q-43 0 -101 -10q-44 -7 -82 -7q-80 0 -125 35q-6 -18 -49 -86q-31 -51 -31 -90q0 -20 7 -41l36 -37q-29 -14 -34 -47q-2 -10 -2 -62q47 -39 59 -39q6 0 14 2q29 14 35 50v59h62q35 -4 47 -35q25 39 53 39q18 0 55 -21.5t56 -21.5q31 0 53 39 l362 -252l-35 -37l-73 72q-39 -74 -56 -92q-27 -33 -90 -51l-71 71q-14 -39 -62 -39q-85 0 -85 2h1l-35 37q-38 -46 -38 -58q0 -7 2 -13h-72q-2 6 -2 12q0 12 37 59q-10 2 -21 2q-35 0 -132 -43t-165 -43q-41 0 -80 13q-45 -18 -75 -19q-76 0 -105 125q-35 152 -74 182 q8 -2 15 -2q12 0 59 39l-74 72q-45 -39 -57 -39q-8 0 -14 2l71 74q-75 48 -75 139q0 20 4 41q23 18 94 31q63 8 86 43q-20 37 -78 37q-104 0 -104 -2l2 -1q24 28 24 65q0 28 -15 86t-15 91zM1077 1288h146v-35zM1331 1579h146v-37z" />
<glyph unicode="f" horiz-adv-x="1617" d="M250 184h108v-37zM250 365q53 248 57 262q45 145 123 209q20 -4 39 -5q92 0 143 76v37q-59 39 -168 39q-197 0 -197 -2h3v578q47 14 94 14q94 0 252 -81t252 -81q27 0 53 4q47 39 60 39q6 0 12 -4l-72 -72q45 -37 163 -37.5t163 -33.5q-37 -43 -102 -43q-24 0 -52 6 q-86 16 -172 35q-96 0 -145 -107q39 -16 39 -61q0 -85 -2 -85v1q-4 -18 -5 -41q0 -63 29 -131q31 -76 84 -117l109 108q-39 45 -39 58q0 6 2 14q-2 -8 -2 -16q0 -23 18.5 -41.5t40.5 -18.5q8 0 17 4h108q-39 -125 -39 -151q0 -14 2 -31q-6 2 -14 2q-12 0 -57 -37 q45 -39 57 -39q8 0 14 2q-2 -31 -55 -45q-74 -18 -90 -28v110h61q35 6 47 35l-71 109q2 -72 -74 -72h-22.5h-22.5q-84 0 -98 -72q6 -6 43 -47q27 -29 51 -28q6 0 14 2q-8 2 -16 2q-29 0 -67 -58.5t-64 -58.5q-31 0 -70 43q10 23 10 39q0 35 -47 61q-66 37 -72 45 q-14 -31 -92 -41q-54 -9 -54 -56q0 -6 1 -13q8 -49 64 -66q8 -2 98 -14q51 -6 51 -31t-31 -69q12 -29 47 -35q10 -2 62 -2q0 -51 2 -60q6 -35 33 -49h37v-72q-6 2 -15 3q-12 0 -57 -39l35 -109l-361 37q72 43 72 111q0 63 -59 131q-55 59 -123 84h-35zM1227 907h108v-35z M1335 1341l37 109q31 0 35 -39t8 -76q10 -30 46 -30q9 0 20 2v-109h-109q-2 6 -2 14q0 25 29 50q41 39 45 45q-14 31 -47 34h-62z" />
<glyph unicode="g" horiz-adv-x="2123" d="M195 928q29 98 55 196q41 137 100 209q80 98 207 101l109 -109l73 109l-145 108q217 82 434 82t434 -82q0 -51 66 -90q74 -41 80 -53h-254q2 6 2 12q0 12 -39 59q-27 -14 -33 -47q-2 -10 -2 -61q45 -39 57 -39q8 0 15 2q2 -6 2 -12q0 -12 -39 -60l74 -71q53 112 226 112 h3q31 0 59 -4q61 -23 68 -102q8 -90 41 -115l-506 -37q1 11 1 21q0 61 -42 96q-51 33 -104 64q-51 0 -62 2q-33 6 -47 34l-37 -36q-19 38 -75 38h-3q-103 0 -103 -2h1l-37 -36q37 -16 37 -41q0 -14 -19.5 -49t-17.5 -54q-41 -27 -41 -135q0 -33 5 -111.5t5 -115.5 q0 -43 -4 -74q-75 -18 -75 -50q0 -21 58 -82t58 -97q0 -12 -6 -23h-1q0 2 122 2q68 0 96 -39q4 -6 4 -14q0 -12 -39 -58q14 -38 60 -38h2q83 0 83 2h-1l37 36q-47 39 -60 39q-6 0 -12 -4q70 29 186 150l176 176q-2 2 -53 41q-35 25 -55 24q-23 0 -37 -28v-37h-74v74 q53 0 62 2q35 6 47 35q-28 36 -93 36h-3q-122 0 -122 -2h1v109q51 8 102 8q66 0 179.5 -16.5t170.5 -16.5q86 0 164 25q-2 -6 -2 -14q0 -12 39 -58q45 39 57 39q8 0 15 -2q-39 -27 -39 -55q0 -16 25.5 -57.5t25.5 -65.5q0 -20 -12 -41q-6 4 -15 4q-12 0 -57 -39 q76 -72 76 -162q0 -18 -4 -62t-4 -73q0 -32 4 -65q-66 -74 -176 -74q-59 0 -174 28.5t-158 28.5q-137 0 -143 -200q-92 43 -173 43q-51 0 -137 -24t-137 -24q-80 0 -170 41q-14 37 -160 170q-127 117 -127 201q0 68 70 135q2 8 2 15q0 12 -39 57h-72v182h-1q0 -2 104 -2 q57 0 80 39l-111 109q-37 -47 -37 -60q0 -6 2 -14q-8 -2 -14 -2q-12 0 -59 39zM340 965q25 -76 127 -76q78 0 164 39zM1100 1325q10 -23 92 -46t90 -62l-37 36q-2 6 -2 15q0 12 39 57l-37 -35h1q0 -2 -83 -2q-47 0 -63 37zM1427 94q57 -39 166 -39q198 0 198 3q0 1 -3 1 q-63 -43 -191 -43q-141 0 -170 78zM1462 1108z" />
<glyph unicode="h" horiz-adv-x="1742" d="M123 1343q0 47 39 62l145 -37q18 23 49 105q27 68 60 77q2 -8 2 -14q0 -12 -39 -59q20 -18 64 -18q31 -1 75 9q33 7 61 8q59 0 91 -34q-25 -25 -70 -25q-12 0 -35.5 2t-34.5 2q-77 0 -77 -91q0 -70 84 -70h2q10 0 28 2h29q80 0 80 -62q0 -20 -6 -49q59 -61 133 -61 q33 0 108.5 18t118.5 18q37 0 74 -10q39 29 39 96q0 122 -3 122l-1 -1l73 -73q39 47 39 59q0 6 -2 14l72 -108q16 6 70 47q41 31 75 31q16 0 35 -7q-2 -6 -2 -14q0 -12 39 -57q31 14 35 47q2 2 2 61q-47 39 -59 39q-6 0 -15 -4v37h146q8 -43 8 -78q0 -154 -189 -176l-36 -35 q31 -39 96 -39q122 0 122 2h-1q-6 -37 -7 -86q0 -41 6.5 -128t6.5 -130q0 -180 -115 -235q111 -8 111 -131q0 -23 -4.5 -71t-4.5 -71q1 -30 7 -53q-16 2 -33 2q-68 0 -181.5 -58.5t-170.5 -58.5q-61 0 -123 43q6 35 78 39q82 6 104 33q16 -18 47 -18q57 0 133 55l37 35 q-31 110 -135 110h-2q-33 0 -94.5 -13t-79.5 -13q-47 0 -47 47q0 41 32 123l-254 291h-5q-34 -1 -82 -55q-52 -58 -76 -58q-27 0 -54 39q-25 -39 -53 -39q-18 0 -55 21.5t-55 21.5q-29 0 -54 -39q115 -47 115 -168q0 -29 -6 -86t-6 -86q0 -33 6 -59h1q0 -2 -122 -2 q-66 0 -96 38q-2 6 -2 13q0 12 39 59q-43 10 -144 60q-88 43 -147 49q39 123 39 151q0 14 -2 31q-47 37 -60 37q-6 0 -14 -2l74 74q-46 36 -59 36h-1q-6 0 -14 -2l219 109q-47 39 -59 39q-6 0 -15 -2v37l109 -74l108 145q-25 8 -102 66q-66 45 -106 45q-43 0 -80 -39 q-2 8 -2 14q0 12 39 60q-14 29 -50 35h-61v-1q-2 0 -2 84zM125 66q-1 13 -1 25q0 41 12 63q14 28 63 57q55 -80 141 -80q20 0 39 6v-71h-254zM379 645h74q-39 45 -39 57q0 8 2 15h-37v-72zM453 211l143 -109q-20 -10 -37 -10q-35 0 -59.5 59.5t-46.5 59.5zM1139 1550v72 l362 -37q-27 -72 -84 -72q-29 0 -100.5 25t-112.5 25q-35 0 -65 -13z" />
<glyph unicode="i" horiz-adv-x="901" d="M203 1303q0 12 6 30l289 -35q-25 -68 -109 -217q-25 -4 -59.5 18.5t-57.5 22.5q-14 0 -28 -6q0 51 2 62q6 33 35 47q-12 27 -50 41q-29 14 -28 37zM209 68q29 12 35 47v61q14 6 28 6q23 0 64 -19.5t55 -19.5q31 0 35 68h-12q-68 0 -118 43q-54 47 -54 113q0 51 39 98 q27 -6 53 -6q51 0 121 30q90 41 114 48l-71 73q-28 -32 -60 -32h-2q-20 0 -68.5 21.5t-78.5 21.5q-23 0 -45 -11l145 72q-55 8 -80 37q-14 18 -29.5 67.5t-35.5 75.5q47 4 135 58.5t135 54.5t92 -39q14 39 62 39q85 0 85 -2h-1v-62q-6 -35 -37 -49q45 -51 45 -82 q0 -37 -101 -61q-109 -27 -124 -74q29 -57 96 -67q59 -2 121 -5q-35 -39 -140 -67q-129 -37 -166 -57q-82 -45 -94 -130q27 -108 109 -108h2q41 0 145 39q93 35 139 35h5l-146 -109q76 -41 92 -55q34 -29 54 -90l-74 71q-38 -75 -169 -75h-3q-33 0 -98.5 4t-96.5 4 q-39 0 -67 -4zM209 1587q33 12 67 12q43 0 118 -25.5t112 -25.5q53 0 100 39q4 1 8 1q23 0 54 -20q37 -22 57 -22q13 0 27 4q-8 -55 -37 -77q-16 -16 -66.5 -32t-79.5 -34q4 6 4 12q0 12 -38 60q-29 -14 -35 -47q-2 -10 -2 -62q-104 16 -187 68q-96 63 -102 149zM547 1141 q0 18 16.5 65t16.5 78q0 27 -11 49q23 10 39 10q35 0 59.5 -59t47.5 -59h-7q-47 0 -67 -51q-35 -92 -35 -93q-59 20 -59 60z" />
<glyph unicode="j" horiz-adv-x="1499" d="M115 459l73 108h5q50 0 67 -108h-145zM141 248q0 41 64 59q78 25 92 43q4 63 90 108.5t90 108.5q-37 113 -198 113q-27 0 -56 -4v37l217 -37q-2 -6 -2 -12q0 -12 39 -60h74q-2 -2 -38 -39t-36 -61q0 -25 37 -45l37 37l180 -183q39 16 39 64q0 83 -2 83v-1q51 0 59 2 q35 6 50 35q-27 49 -52 98q-26 55 -26 104q0 27 4 52l145 71l-145 109l108 71q-41 10 -74.5 52.5t-33.5 89.5q0 45 37 76l-37 290l108 -217q68 4 123.5 118t102.5 114q41 0 100 -51q46 38 58 38h1q6 0 15 -2v-145q-18 -2 -53 17.5t-50 19.5q-27 0 -43 -37v-35q1 0 1 -1 q0 -3 -85 -3q-45 0 -61 39q-37 -45 -37 -57q0 -8 2 -15q51 -39 150 -39q178 0 178 2h-2v-108h-62q-33 -6 -47 -37q61 -4 92 -70q27 -55 52 -110l-72 -72l72 -74q-16 -34 -75 -34h-3h-16.5h-14.5q-72 0 -72 -64v-10l181 -72l-218 -72l183 -73q8 -27 8 -53q0 -98 -117 -201 l-74 74q-31 -29 -89 -111t-97 -115q-61 -49 -137 -49q-51 0 -111 21l-35 36q-31 -41 -47 -41q-10 0 -30.5 40t-51.5 40q-8 0 -16 -4q-102 2 -205 2q-117 8 -157 107q-10 25 -11 43z" />
<glyph unicode="k" d="M313 1401q0 45 39 61l-37 35q49 37 115 37q43 0 143.5 -24.5t157.5 -24.5q43 0 84 12q-4 -25 -78.5 -41t-74.5 -59q0 -18 10 -43l71 -70l35 35l72 -178q12 -1 23 -1q131 0 186 107q39 109 78 217q54 106 187 106q12 0 24 -1l391 -107q-18 -82 -127 -168 q-92 -72 -185 -145q-96 -86 -96 -176q0 -39 17 -80q-10 -27 -84 -82q-63 -47 -64 -88q0 -35 41 -80q31 14 35 47v60q20 -6 98 -48q57 -30 102 -30h3q23 0 47 6l143 -285q-37 39 -113 39q-139 0 -139 -2h2q-14 -33 -14 -55q0 -57 104 -58q18 0 65.5 3.5t70.5 3.5 q96 0 131 -37l-72 -107l213 -143h3q0 -2 -249 -2q-139 0 -217 39q-14 -39 -59 -39q-83 0 -83 2h1q-179 212 -179 369q0 12 1 24q-14 29 -48 35h-59q2 39 -39 78q-35 33 -67 65q-86 -45 -103 -141l-4 -180q-43 35 -108 35q-63 0 -107 -35l-35 -35q35 -39 113 -39q139 0 139 2 h-2v-106h-250q2 73 -69 73h-2h-31q-23 -2 -33 -2q-59 0 -78 35l-37 428h-1q0 -2 120 -2q66 0 96 37q-31 39 -96 39q-120 0 -120 -2h1v248h-1q0 -2 83 -2q47 0 62 38l-144 107q25 18 95 29q61 8 84 43q-18 16 -48 73q-27 47 -59 68h-72v-1q-2 0 -2 83zM1206 324 q106 -37 117 -37q38 0 61 37h-178zM1454 1354h107v108zM1739 1569h108v-37z" />
<glyph unicode="l" horiz-adv-x="1441" d="M88 199q0 80 94 96q90 8 178 14q96 8 97 66q0 18 -8 41l-107 -37v-1q2 0 2 83q0 47 -37 61h-59q-35 -6 -47 -35v-36q-55 18 -68 100q-4 25 -4 149q25 -4 49 -4q154 0 164 111q-10 59 -86 90q-63 27 -127 51v16q0 115 82 171q57 35 203 63q-47 47 -95 92q-66 63 -129 64 q-31 0 -61 -13q10 45 102 93q76 40 76 110v10h-2q0 2 176 2q96 0 146 -38q-12 -70 -127 -76q-127 -6 -158 -66q33 -37 111 -37q10 0 32 2h33q76 0 109 -36v-142q-70 35 -127 35q-63 0 -160 -59q-109 -68 -176 -82q57 -76 184 -76q29 0 90.5 4t89.5 4q35 0 64 -4l-72 -72 q115 -18 115 -147q0 -29 -7 -91.5t-7 -92.5q0 -35 6 -60h-60q-33 -6 -47 -35q-6 -18 -6 -36q0 -33 31 -74q41 -53 47 -68q244 111 612 111q67 0 135 -4q4 -31 4 -51q0 -94 -110 -127q-27 -8 -51 -9q-29 0 -75 12.5t-65 12.5q-51 0 -94 -51q35 -39 111 -39q139 0 139 2h-2 v-107h-1067q-41 86 -41 140z" />
<glyph unicode="m" d="M195 924q0 31 4 63h-1q0 -2 103 -2q55 0 76 37q-20 39 -76 39q-103 0 -103 -2h1v71q57 0 59 -2q33 -4 47 -34q37 25 37 63q0 23 -14 60q-10 29 -23 55l107 35q-2 -6 -2 -13q0 -12 39 -57q18 16 47 74q25 49 59 67q-45 39 -57 39q-8 0 -15 -2v35q6 2 15 2q12 0 57 -37 q6 -1 12 -1q31 0 83 16q62 20 93 20q51 0 97 -35l71 -72l-143 -71q250 -68 285 -498l34 -37q27 51 54 101q20 44 20 86q0 14 -2 28q57 57 90 238q33 190 88 260q4 0 236 47q156 31 266 31q53 0 103 -6v-107q-29 8 -54 8q-50 0 -108 -59q-57 -57 -119 -57h-4q41 -98 153 -172 q127 -84 168 -148q-41 -35 -41 -96q0 -21 5 -45q18 -82 36 -166q1 -9 1 -18q0 -86 -72 -138q75 -25 75 -134q0 -30 -5 -85t-5 -82q0 -30 6 -55h-59q-35 -4 -47 -35q45 -39 57 -39q6 0 13 4v-37l-70 72q-33 -78 -133 -78q-82 0 -152 43q-74 72 -74 260v80q2 53 3 80 q0 143 -35 219q-82 -137 -119 -288q-29 -158 -59 -316q-23 12 -48 12q-37 0 -98 -43t-82 -43q-37 0 -57 74q-41 -14 -72 -14q-61 0 -86 65q-10 31 -22 142q-10 92 -35 127l-107 284l-34 -497h1q0 2 -120 2q-66 0 -94 -37q16 -37 106 -37q-37 -10 -119 -45q-55 -25 -98 -25 q-55 0 -139 35l106 72q-14 29 -47 35h-59v178q6 -2 14 -2q12 0 57 37q-45 39 -57 39q-8 0 -14 -3q-2 6 -2 13q0 12 36 59q-36 14 -36 58q0 85 2 84v-1h-1q0 -2 83 -2q45 0 61 37h-9q-138 0 -138 187zM270 1591h213q-14 -39 -106 -39q-94 0 -107 39zM342 524q37 -76 111 -96 q119 -35 137 -45v70q-27 -27 -58 -27q-37 0 -96 43q-70 47 -94 55zM342 846l213 -109l-72 72zM412 1130l71 -71l-34 -37h106v7q0 47 -51 67q-90 33 -92 34zM1694 489zM1907 1200q17 107 66 107h5v-107h-71z" />
<glyph unicode="n" horiz-adv-x="1845" d="M197 1288q4 47 4 68q0 27 -4 45q98 184 393 184q51 0 104 -6q70 -137 230 -352q135 -178 270 -359q8 25 8 68q0 35 -9 123t-9 133q0 195 151 209q-14 31 -47 37h-59v35q33 -16 201 -27q127 -8 155 -80q12 31 45 35h62q20 -35 20 -74q0 -18 -6 -52t-6 -50q0 -39 26 -72 q-73 -33 -73 -115v-2q0 -59 39 -96l34 -37q-106 -23 -106 -117q0 -18 4 -54t4 -52q0 -90 -115 -96l-34 -37l-72 71l-72 -106q63 -41 160 -41q96 0 160 41v35q8 4 14 4q12 0 57 -39h-59q-33 -6 -47 -35q10 -27 68 -47q39 -12 39 -45q0 -6 -1 -14l-71 -72l37 -37l-392 -69 q55 -37 166 -37h47q33 2 48 2q110 0 165 -37q-57 -78 -208 -78q-96 0 -289 41l-357 463q33 35 33 59q0 20 -55 62q-50 38 -50 84q0 5 1 10q-6 -2 -13 -2q-12 0 -57 37q-39 -14 -39 -62q0 -81 2 -81v1h1q0 2 -83 2q-45 0 -59 -39q12 -18 92 -67q63 -37 64 -86q0 -27 -15 -59 h-59q-33 -6 -47 -35q-2 -8 -2 -15q0 -12 39 -57l34 35q37 -10 37 -82q0 -132 -2 -132v1q-6 -2 -12 -2q-12 0 -57 37q-39 -45 -39 -58q0 -6 2 -14l-142 109q-27 -6 -30.5 -41t-20.5 -35q-8 0 -20 4q-29 -4 -51 -4q-90 0 -127 110v107q88 0 106 37q2 6 2 12q0 12 -37 57h-71 v107h-1q0 -2 103 -2q55 0 76 39q-48 73 -137 73h-2q-18 0 -39 -2v107h-1q0 -2 103 -2q55 0 76 37q2 6 2 14q0 12 -37 57q-39 -16 -64 -16q-47 0 -55 76q-12 100 -24 119l71 69q-75 10 -75 103q0 22 4 69zM1335 1579h-2q0 2 158 2q88 0 129 -37v-71q-32 34 -114 34h-5h-21.5 h-21.5q-109 0 -123 72z" />
<glyph unicode="o" horiz-adv-x="1990" d="M215 608q0 23 16.5 68t16.5 67q0 39 -31 74l109 70q-14 31 -47 37h-62v106q90 0 109 35q-37 35 -37 80q0 37 26 88q23 41 45 82q276 246 535 250q-2 -8 -2 -15q0 -12 37 -57l71 106q-2 -6 -2 -14q0 -12 37 -57l37 37v-12q0 -66 64 -87q66 -14 133 -26q78 -23 88 -90 l141 108q2 -8 2 -14q0 -12 -37 -58q20 -38 73 -38h3q103 0 103 2h-1q-2 -31 -55 -43q-74 -18 -88 -27q-27 70 -74 70q-29 0 -89 -35t-87 -35q-6 2 -12 2q-12 0 -57 -39q92 -37 266 -37q269 0 269 2h-3l72 -178q-12 -6 -27 -6q-23 0 -63.5 19.5t-53.5 19.5q-31 0 -34 -68 q29 -29 88 -37q70 -8 88 -16q37 -20 37 -90v-72h2q0 2 -158 2q-86 0 -129 -37q22 -36 75 -36h3q102 0 102 2h-2q-2 -8 -2 -15q0 -12 39 -57h70q-33 -201 -177 -356h2q0 2 -176 2q-96 0 -147 -37q18 -37 106 -37q-2 -6 -2 -12q0 -12 39 -58h70v-37q-88 0 -107 37 q-10 -51 -59 -65q-61 -16 -82 -43q-78 23 -156 45q-93 26 -156 26h-5q-82 0 -146 -34q-66 -76 -149 -76q-14 0 -29 4l-106 143q-1 0 -1 -1q0 -3 83 -3q63 0 63 53q0 10 -39 58q-41 0 -108.5 72.5t-98.5 72.5q-41 0 -78 -76l-143 179l37 36q-39 35 -39 76zM360 602 q57 -35 168 -35h43q29 2 43 2q147 0 209 -73v-60q-6 -33 -35 -47q23 -39 52 -39q18 0 54 21.5t54 21.5q29 0 53 -39l35 35h60q35 -6 47 -35q6 4 43 45q27 29 49 29q8 0 14 -2q-45 33 -45 53q0 16 46 34.5t46 35.5q0 20 -47 53q37 66 37 141q0 63 -33 179q-35 123 -39 180 q14 29 48 35h59h-107q-36 44 -36 56q0 7 2 15q-51 -35 -142 -35q-12 0 -24 1q-88 8 -174 18q-18 2 -32 2q-51 0 -56 -23q39 -12 39 -38q0 -33 -52 -76q2 0 13 8v2q2 0 2 -213q0 -143 -37 -215h1q0 -2 -83 -2q-47 0 -62 37q2 -6 2 -12q0 -12 -36 -60q-90 0 -107 37 q-45 -39 -57 -39q-8 0 -15 2z" />
<glyph unicode="p" horiz-adv-x="1708" d="M143 1188q0 6 2 14q14 29 48 35h61h-1q0 -2 177 -2q123 0 178 37q-45 39 -57 39q-6 0 -12 -2l69 71q-14 6 -67 45q-41 31 -74 31q-18 0 -35 -6q2 8 2 14q0 12 -39 58q-16 -6 -67 -47q-41 -31 -76 -31q-16 0 -35 6l-35 106h996q4 -16 -15.5 -51t-19.5 -49q0 -25 35 -41 q72 47 120 47q41 0 82 -35q41 -43 82 -84l72 -106h1q0 2 -83 2q-45 0 -59 -37q82 0 120 -74q29 -70 58 -141v-69h1q0 2 -83 2q-47 0 -62 -39v-70q-33 37 -73 37q-20 0 -57 -13.5t-54 -13.5q-39 0 -65 60l-107 -107l72 -72q20 39 76 39q103 0 103 -2h-1l35 -37q14 39 61 39 q83 0 83 -2h-1q-72 -92 -213 -133q-94 -29 -280 -45q-213 -20 -289 -35q-39 -31 -39 -96q0 -120 2 -120v1q-31 74 -170 74q-23 0 -43 -2q-35 -18 -35 -107q6 -4 43 -45q25 -29 49 -28q6 0 15 2q8 -18 8 -35q0 -37 -47 -76q-59 -51 -68 -67q-84 0 -168 -2q-83 5 -83 89 q0 9 1 19q2 8 2 14q0 12 -39 58q39 14 39 61q0 83 -2 83v-1q88 0 107 35q-53 8 -78 37q-14 16 -29.5 65.5t-36.5 75.5q8 -2 15 -2q12 0 57 37q-2 35 -29 119q-24 75 -24 113q0 95 125 124q2 6 2 15q0 12 -37 57h-72q-2 6 -2 12q0 12 37 60q-4 6 -45 43q-29 25 -29 49z M254 133l106 -35v35h-106zM717 918h106q37 -47 37 -58q0 -8 -2 -14h143l-36 35q33 82 147 100q8 2 209 6q-39 -12 -76 -12q-86 0 -212 108.5t-212 108.5q-49 0 -104 -27v-247z" />
<glyph unicode="q" horiz-adv-x="1855" d="M96 950q0 190 125 348q74 92 273 252q115 39 249 39q137 0 371 -51q250 -53 340 -59q2 -6 2 -13q0 -12 -37 -57q18 -29 109 -41q76 -12 76 -59q0 -18 -7 -43q-20 2 -38 2q-90 0 -140 -74q29 -16 33 -109q2 -69 65 -69h9l71 71q-38 44 -38 57q0 7 2 15q37 16 63 17 q47 0 57 -76q12 -104 23 -119l-37 -35q47 -39 57 -39q9 0 15 2v1q2 0 2 -83q0 -45 -37 -59q2 -23 2 -49q0 -182 -74 -307h-59q-33 -6 -47 -35q4 -43 70.5 -107.5t70.5 -107.5q-72 41 -178 41q-104 0 -176 -41q-12 -92 -64 -92q-14 0 -53 12t-59 12q-45 0 -74 -39h2 q0 -2 -268 -2q-176 0 -269 39l-69 176l-109 -69q-92 88 -123 131q-57 76 -57 157q0 14 2 31l37 35l-107 72l213 71l-213 107q88 0 107 37q-14 29 -47 34h-60q-6 39 -6 76zM635 803q29 -43 59.5 -150.5t61.5 -148.5q45 -63 133 -64q31 0 67 6l-143 144q0 37 64 37q-8 0 8 -2 l-35 37q-2 39 37 77q35 33 69 64q35 41 64 41q27 0 70.5 -54.5t78.5 -58.5q20 84 21 150q0 106 -55 206q-115 143 -232 144q-59 0 -125 -37q-37 -59 -73 -121q-41 -74 -41 -123q0 -23 8 -41v-59q-6 -33 -37 -47zM850 340l319 -72v72q-20 6 -41 6q-35 0 -98 -19.5t-92 -19.5 q-49 0 -88 33z" />
<glyph unicode="r" horiz-adv-x="1720" d="M178 319q0 18 2 35v144q23 -10 41 -11q35 0 60 48q35 63 43 69q8 23 8 39q0 43 -60 64q-80 29 -92 41v141q8 2 15 2q12 0 57 -37q39 20 39 76q0 103 -2 103v-1q-6 4 -43 45q-27 27 -49 27q-8 0 -17 -2v106q28 -26 56 -26h2q23 0 59 24q45 33 61 39v107q61 2 123 4 q63 10 92 67q-27 35 -107.5 36t-107.5 34q16 39 70 39q31 0 123 -20.5t143 -20.5q78 0 127 39q49 63 94 63q37 0 126 -84t165 -84q53 0 115 33q6 -4 43 -45q25 -29 49 -29q6 0 14 2q2 -6 3 -12q0 -12 -39 -57q25 -37 63 -37q25 0 59 14q29 10 56 23l-72 -72q90 -121 90 -194 q0 -41 -18 -127q-14 -4 -29 -4q-39 0 -107.5 56t-107.5 56q-37 0 -76 -37q25 -29 68 -45q37 -14 74 -26v-142h2q0 2 -103 2q-55 0 -78 -36v-7q0 -67 72 -67h14.5h14.5q61 0 78 -35q123 39 149 39q14 0 29 -2q2 -39 -39 -78q-33 -33 -68 -66q74 -39 92 -53q31 -29 52 -88 l-179 -106l107 -109q37 47 37 60q0 6 -2 12h37v-14q0 -82 -68 -125q-61 -39 -168 -39q-109 0 -192 36q-74 90 -74 228q0 27 2 57l37 35q-37 18 -37 106l37 37q-49 53 -146 54q-57 0 -145 -21q-68 -16 -137 -33v-215h1q0 2 -83 2q-45 0 -60 -37q14 -36 58 -36h2q83 0 83 2h-1 q-25 -76 -137 -76q-27 0 -82.5 4t-81.5 4q-31 0 -56 -4q4 6 4 12q0 12 -38 60q-39 -47 -39 -60q0 -6 4 -12q-23 -10 -39 -10q-72 0 -72 116zM643 1139q78 -2 96 -92q20 -102 82 -123q76 25 152 49q86 35 133 94q-10 145 -268 145q-35 0 -86 -4q1 -8 1 -16q0 -57 -81 -57h-2 q-14 0 -27 4zM680 1280l319 106l-34 37q-8 -73 -104 -73h-3q-12 0 -37 2h-35q-98 0 -106 -72z" />
<glyph unicode="s" horiz-adv-x="1785" d="M285 1174q0 25 8 57l143 69l-106 109q61 74 211 74q18 0 59 -2t62 -2q109 0 165 37q-2 -8 -2 -15q0 -12 37 -57q39 14 39 61q0 81 -2 81v-1l-72 72q213 -4 310 -25q180 -39 260 -153h59q33 -6 47 -35v-107h1q0 2 -83 2q-63 0 -63 -51q0 -12 39 -57l178 35v-107 q-8 -2 -14 -2q-12 0 -58 37q-32 -40 -83 -40q-17 0 -36 5q-59 18 -118 35q-5 1 -11 1q-50 0 -71 -71l-107 70l213 72q-58 69 -145 69h-2q-51 0 -158.5 -33.5t-157.5 -35.5q-36 -34 -36 -72q1 -34 39 -102q33 -59 33 -99q0 -6 -1 -12q31 4 58 4q96 0 226 -81t218 -81 q49 0 104 17q-2 -8 -2 -15q0 -12 37 -57h72v-106q-57 0 -59 -3q-35 -4 -48 -34q20 -37 76 -37q104 0 104 2h-1q2 -8 2 -15q0 -12 -39 -57q31 -14 35 -47q2 -2 2 -59q-31 -40 -76 -40q-16 0 -33 5q-53 16 -104 35h-8q-49 0 -64 -72q29 -37 94 -37q120 0 120 2h-1v-11 q0 -136 -141 -136q-20 0 -63.5 2t-65.5 2q-117 0 -158 -70q47 -39 59 -39q6 0 13 2q-27 -37 -105 -37q-86 0 -180 37q-2 8 -2 15q0 12 39 57q-14 31 -47 35h-62q-37 -45 -37 -58q0 -6 2 -12h1q0 -2 -103 -2q-55 0 -76 37q-45 -39 -57 -39q-6 0 -14 4v70h-1q0 -2 82 -2 q47 0 62 39q-37 29 -113 34q-94 8 -116 17q-63 23 -93 90q-20 25 -53 96l-53 117q-2 -6 -2 -12q0 -12 39 -58q45 78 190 78q117 0 236 -43q-2 -14 -2 -26q0 -59 49 -86q25 -14 100.5 -30t102.5 -36q16 41 92 80q65 33 65 75q0 26 -16 58q-90 76 -227 76q-27 0 -58 -4 q4 8 4 14q0 12 -39 57q-16 -35 -41 -34q-14 0 -49 18t-53 16q-8 72 -96 72h-33q-23 -2 -35 -2q-96 0 -121 74l179 106q-12 29 -46 35h-61v72q8 -2 14 -2q12 0 58 36q-14 31 -47 35q-2 2 -60 2q-37 -18 -37 -108q-6 12 -71 69q-43 39 -43 89z" />
<glyph unicode="t" horiz-adv-x="1998" d="M281 1219v368q49 6 106 6q70 0 204 -10t195 -10q92 0 160 14l74 -74q63 37 221 38t221 36q0 -51 2 -61q6 -35 35 -49q31 14 37 49v61h221v-74q-10 -2 -26 -2q-12 0 -39 2.5t-39 2.5q-57 0 -80 -39l147 -185q-53 -25 -189 -37t-190 -36q-88 -41 -100 -148q-10 1 -20 1 q-61 0 -93 -44q-38 -51 -71 -104q-8 -29 -8 -50q0 -63 77 -63q14 0 41 2t39 2q78 0 78 -65q0 -20 -6 -48q-16 -2 -35 -2q-18 0 -54 2.5t-52 2.5q-80 0 -117 -39q0 -53 2 -64q6 -35 35 -49h37l-111 -111l37 -36h-5q-41 0 -89 -60q-52 -64 -101 -65q-29 0 -63 14v147h-1 q0 -2 85 -2q65 0 65 54q0 12 -39 59h-110q2 14 2 33q0 14 -3 45t-3 45q0 70 41 100q-29 14 -37 47v64q51 0 61 2q35 6 49 35q-14 31 -49 37h-61v13q0 27 6 71q8 55 8 77q0 97 -120 97h-7q-74 -41 -184 -41q-109 0 -184 41zM762 37q29 20 35 113q6 71 73 71h2q4 1 8 1 q23 0 54 -20q37 -24 57 -24q14 0 29 6q33 14 33 29q0 8 -19.5 29.5t-19.5 36.5q0 8 6 16q18 -4 45 -4q20 0 64.5 5t66.5 5q90 0 119 -80q-4 -76 -90 -76h-37q-25 2 -39 2q-68 0 -92 -36q27 -37 110.5 -38t110.5 -36v-37q-88 39 -258 39q-37 0 -105.5 -2t-97.5 -2 q-33 0 -55 2z" />
<glyph unicode="u" horiz-adv-x="1746" d="M100 694v5q0 51 111 69q14 -29 37 -29t57 27l53 39q-51 27 -100 53q-59 27 -111 27q-23 0 -47 -6v444q6 -2 13 -2q14 0 61 39q-29 14 -35 47q-2 10 -2 63q46 -32 119 -32h4q53 0 154.5 19.5t140.5 19.5q113 0 113 -121q0 -45 -15 -107v-518h-61q-35 -6 -49 -37 q70 -104 141 -207q94 -131 211 -131q27 0 53 6q55 53 109 105q63 63 76 117l-37 37l73 73l-36 37q12 -2 22 -2q51 1 128 97q72 90 137 89h10l-82 70q-55 43 -99 43q-41 0 -80 -37h-36q-6 12 -7 27q0 25 20.5 66.5t20.5 54.5q0 33 -71 37q20 39 40.5 77.5t61.5 38.5 q20 0 47 -6q16 -18 47 -18q59 0 138 55q-45 39 -134 39q-20 0 -61 -2t-59 -2q-25 0 -43 2q-2 6 -3 14q0 12 39 60q-35 16 -34 43q0 14 19.5 50t14.5 54q27 -2 58 -2q27 0 82 2t82 2q121 0 186 -39q27 4 31 41t22 37q8 0 21 -4q-16 -51 -17 -100q0 -33 11.5 -96.5 t11.5 -104.5q0 -33 -6 -68h-64q-33 -6 -47 -37q31 -14 37 -49v-61l-37 -37q6 -6 45 -47q27 -31 49 -31q8 0 17 4v-112q-8 4 -15 4q-12 0 -59 -41q6 -16 6 -31q0 -43 -61 -70q-82 -37 -92 -47l73 -73l-147 -74q49 -31 125 -47q66 -14 133 -27q-10 -12 -119 -53 q-92 -35 -102 -94q23 -37 65 -37q25 0 62 14q29 10 57 23q-57 -258 -481 -332q-25 6 -68 6q-33 0 -117 -7t-129 -7q-190 0 -239 118q14 31 92 41q56 7 56 57q0 6 -1 13l-110 111q-31 -25 -97 -119q-39 -55 -125 -66q-18 27 -18 52q0 33 46 79.5t46 71.5q0 27 -37 55 q-51 -63 -90 -63q-29 0 -80 49t-88 51v74q20 -6 43 -6q106 0 142 117q-53 29 -105 55q-46 20 -89 20q-14 0 -28 -2zM322 1176q8 2 20 2q10 0 31.5 -2t32.5 -2h2q45 0 61 38q-14 6 -27 7q-24 0 -60 -24q-30 -20 -51 -20q-5 0 -9 1zM358 1618h222q-14 -41 -111 -41 q-96 0 -111 41zM911 215q16 -43 131 -43q42 0 91 6q-12 2 -31 2q-14 0 -45 -2t-47 -2q-68 0 -99 39z" />
<glyph unicode="v" horiz-adv-x="1763" d="M143 1186q2 27 93.5 39t91.5 45q0 23 -37 63h-74q-6 23 -6 43q0 109 117 142l147 -148q39 47 39 60q0 8 -2 14l111 -74q4 -147 71 -340q57 -162 113 -325l184 112q-47 39 -59 39q-6 0 -14 -2q29 141 55 285q47 170 166 170q35 0 75 -13q39 47 39 60q0 6 -2 14h-12 q-62 0 -82 37q-10 16 -18 92q-6 63 -37 92h149q-4 -6 -4 -14q0 -12 41 -59q39 47 39 59q0 8 -2 14q6 2 14 2q12 0 60 -39q25 41 53 41q18 0 56 -21.5t57 -21.5q30 0 55 39q-20 -49 -36.5 -164.5t-37.5 -164.5q-35 -82 -110 -113l37 -37l-111 -147q16 -43 16 -91 q0 -74 -64 -226q-63 -147 -63 -233v-5q-68 -27 -92 -146q-29 -150 -57 -186h-9q-50 0 -167 -35q-137 -39 -201 -39q-125 0 -176 111q-27 27 -53.5 56.5t-26.5 59.5q0 14 6 31l37 37q-47 39 -59 39q-8 0 -15 -2l111 110q-51 78 -146 78q-18 0 -38 -4l73 74q-76 41 -94 57 q-33 29 -53 92q8 -2 15 -2q32 0 60 36q34 44 33 97q0 80 -71 91q63 2 125 2q68 12 96 71q-25 39 -55 39q-18 0 -55.5 -21.5t-57.5 -21.5q-29 0 -53 41q-18 -37 -43 -37q-14 0 -50 19.5t-55 17.5zM991 631q20 4 55 -15.5t52 -19.5q25 0 41 35l39 -37z" />
<glyph unicode="w" horiz-adv-x="2322" d="M119 1540q0 25 6 47q43 6 88 6q88 0 217 -30q168 -43 211 -50l-111 -73q14 -29 50 -35q10 -2 61 -2q-20 -39 -20 -82q0 -57 52 -169t52 -173q0 -68 -47 -129l110 -111q6 27 50 133q30 78 30 136q0 33 -6 63q8 -2 15 -2q12 0 59 39q-39 25 -39 53q0 20 21.5 57t21.5 56 q0 31 -41 55q18 37 82 37h15.5h15.5q72 0 72 62q0 6 -1 12q8 2 15 2q12 0 61 -39q39 16 39 63q0 10 -2 32t-2 32q0 12 2 20q82 39 137 39q80 0 105 -90q10 -39 16 -186q6 -123 37 -168l-37 -37q61 -33 94 -145q27 -94 54 -187q20 27 35.5 104.5t29.5 106.5q29 49 90 49 q12 0 29 -2l-111 74l185 74q-14 39 -64 39q-10 0 -31.5 -2t-31.5 -2q-12 0 -21 2l37 110q12 -2 47 -42t66 -40q16 0 34 8q59 29 60 66q0 20 -25 57q-29 45 -35 62h-147q27 6 59 67q31 55 74 56q23 0 51 -13q8 -180 221 -295l-36 -36q47 -39 59 -39q8 0 14 2l-110 -74 q47 -39 59 -39q8 0 14 2q-20 -53 -36.5 -178t-36.5 -176q-33 -90 -111 -127q-6 -14 -6 -29q0 -27 22.5 -71t22.5 -62q0 -33 -39 -59q-6 -2 -14 -2q-12 0 -60 39q-12 -53 -63 -66q-63 -16 -84 -45q147 -37 184 -184q-20 -4 -64 -40t-69 -36q-27 0 -51 39q-49 -74 -125 -74 q-45 0 -140 37t-141 37q23 27 130 57q86 25 92 90q-41 -8 -72 -8q-92 0 -137 68q-23 37 -56 153q-29 109 -67 156v76q6 -4 12 -4q14 0 62 40l-111 74q-139 -354 -149 -702q-43 -61 -136 -62q-14 0 -41.5 2t-42.5 2q-47 0 -75 -16q-20 -12 -41 -12q-25 0 -66 25.5t-59 25.5 q-29 0 -56 -39q-111 53 -111 262q0 16 1 33q6 -2 14 -2q12 0 60 39q2 8 2 14q0 12 -39 60h-74q-6 23 -6 43q0 41 31 92q43 68 49 88q-16 39 -64 39q-10 0 -31.5 -2t-31.5 -2q-12 0 -21 2q12 23 13 45q0 31 -26 79t-26 70q0 33 39 64q-63 39 -94 163q-27 102 -53 205l74 74 q-117 23 -117 174zM936 1034h111v74l-74 -74l-37 37v-37z" />
<glyph unicode="x" horiz-adv-x="1957" d="M199 66q0 104 153 245q8 -1 15 -1q43 0 86 38q31 27 82 96.5t75 87.5q-47 39 -59 39q-8 0 -14 -2q116 108 116 254q0 57 -18 162q-20 119 -25 176q-25 33 -88 43q-74 10 -96 31v74q8 2 20 2q10 0 32 -3t32 -3q49 0 63 41q-22 38 -76 38h-3q-12 0 -39 -2t-39 -2 q-16 0 -27 2v37l258 -37q-2 -8 -2 -14q0 -12 39 -59l111 110q-47 33 -158 45q-129 16 -162 29q-78 29 -86 111q143 -8 289 -17q164 -25 190 -131l-37 -37q14 -29 50 -35q10 -2 61 -2l-37 -110q59 0 179 -37t178 -37q96 0 161 74q-2 8 -2 20q0 10 2 32t2 32q0 47 -39 63 q-40 -46 -40 -58q0 -9 4 -15q-23 -10 -39 -11q-37 0 -61.5 60.5t-49.5 60.5q41 47 41 60q0 6 -2 14h74q-4 -8 -4 -14q0 -12 41 -60q31 14 34 47q2 4 2 64h111q-8 -25 -8 -43q0 -51 80 -64q92 -14 112 -41q2 -78 -73 -78q-10 0 -33 2.5t-35 2.5q-59 0 -80 -37l74 -111 q-59 0 -64 -2q-33 -4 -47 -35q31 -14 35 -49q2 -4 2 -63q-20 -4 -45 -5q-23 0 -66.5 5.5t-64.5 5.5q-90 0 -121 -80q23 -39 80 -39q12 0 39 2t41 2t27 -2q-20 -61 -54 -92q-18 -14 -96 -55l113 -74l-334 -74q45 -51 113 -51q10 0 30 2h31q51 0 86 -25q29 39 98 39 q14 0 45 -2t48 -2q16 0 30 2l-74 -74l148 -110q-16 -2 -37 -2q-16 0 -52 2t-54 2q-78 0 -115 -39v-37q51 -39 151 -39q23 0 68 2t66 2q27 0 47 -2q-2 -8 -2 -14q0 -12 39 -59q12 2 22 2q47 0 76 -72q43 -107 49 -115h-147q2 6 2 13q0 14 -39 61q-84 -117 -295 -117 q-37 0 -74 6q-57 98 -115 197q-78 133 -145 209l-221 -369q-39 6 -80 6q-68 0 -192 -25.5t-193 -25.5q-45 0 -88 8q-6 25 -6 50zM610 459l185 -37q-6 2 -15 2q-12 0 -59 -39q6 37 -19.5 56.5t-64.5 19.5q-14 0 -27 -2z" />
<glyph unicode="y" horiz-adv-x="1894" d="M260 1278q29 27 35 80q2 12 4 88q0 106 72 127q-2 -74 112 -123q129 -55 148 -98l110 73q74 -27 74 -125q0 -14 -2 -45.5t-2 -46.5q0 -111 115 -116q47 27 73 90q37 86 45 96q29 38 86 38q8 0 17 -1q-29 14 -35 47q-2 10 -2 63q53 0 61 2q35 6 50 35v111l110 -111 q31 14 37 47v64l334 -37q6 -18 6 -33q0 -41 -61 -67q-82 -37 -95 -47q47 -41 62 -41q6 0 12 4q6 -18 6 -31q0 -47 -65 -47q-10 0 -35 2t-37 2q-70 0 -90 -37l-37 37q-34 -76 -92 -76h-8q-57 20 -117 39q-17 4 -33 4q-48 0 -82 -41q61 -63 215 -69q170 -8 228 -43q2 -9 2 -17 q0 -55 -84 -80q-45 -14 -189 -24q-104 -10 -104 -31q0 -29 153 -106h74q1 -16 1 -30q0 -118 -87 -155q-6 -2 -211 -37q-137 -23 -182 -110q33 -150 256 -150q31 0 76 2q4 -55 -111 -73l-37 36q-39 -47 -39 -59q0 -53 64 -53q87 0 87 2h-1q-6 -33 -111.5 -38t-105.5 -42 q0 -25 33 -68h73l-368 -36q-25 59 -25 135q0 78 33 227.5t33 212.5q0 190 -226 236l111 73q-16 39 -64 39q-10 0 -31.5 -2t-31.5 -2q-12 0 -21 2q0 23 60.5 46.5t60.5 60.5q0 18 -10 41q-31 41 -100 41q-14 0 -45 -2.5t-45 -2.5q-18 0 -33 2v74q16 2 37 2q16 0 52 -3t54 -3 q80 0 117 41l-111 111q-29 -6 -33 -43t-20 -37q-8 0 -22 6h-148zM1036 428v74q4 1 8 1q22 0 54 -21q37 -23 59 -23q12 0 27 6v-37h-148z" />
<glyph unicode="z" horiz-adv-x="1937" d="M330 319q0 37 51 105q66 84 80 113q18 -8 37 -9q35 0 75 33q55 41 72 49q-8 10 -8 27q0 39 61 127q80 113 95 141q13 -2 25 -2q64 0 91 45q23 59 45 119q29 74 97 96q-14 31 -47 37h-64q-16 84 -106 113q-76 20 -152 41q-74 35 -74 131v10h-37q-6 37 19.5 57.5t64.5 20.5 q14 0 27 -2q36 -76 112 -76h11q80 18 160 39q24 4 46 4q69 0 113 -43q63 63 125 64q45 0 129 -48.5t131 -48.5t97 33q115 -18 110 -74l-37 -37q76 -51 76 -143q0 -18 -2 -41l-111 -74q2 8 3 17q0 23 -31 49q-41 39 -45 45l-148 -74q14 -39 62 -39q10 0 32.5 2t32.5 2t21 -2 l-297 -73q25 -75 69 -75q4 0 9 1q45 18 90 37q14 4 27 4q39 0 65 -41q-14 -53 -78 -117q-53 -51 -108 -104q-14 -2 -35 -2q-16 0 -52 2t-55 2q-80 0 -117 -39q16 -39 64 -39q10 0 31.5 2t31.5 2q12 0 21 -2q-51 -57 -105.5 -115.5t-152.5 -68.5q-6 -33 -111.5 -38 t-105.5 -42q0 -25 33 -68q47 39 59 39q8 0 14 -2l37 -37h518q-1 -7 -1 -13q0 -49 57 -56q78 -10 92 -43l221 -148l-148 -74q-35 59 -67 119q-49 84 -119 84q-33 0 -74 -18q-51 -147 -200 -148q-45 0 -142.5 16.5t-144.5 16.5q-113 0 -176 -70q-14 6 -41 7q-20 0 -73.5 -5.5 t-84.5 -5.5q-127 0 -170 78q8 -2 19 -2q39 0 122.5 60.5t133.5 60.5q47 0 94 -45q31 14 37 49v61q-59 41 -187 41q-29 0 -78 -2t-67 -2q-23 0 -37 2v-75q-57 37 -57 79zM350 1421h148v-37zM350 1571h148v-12q0 -60 -39 -60q-29 0 -66 27.5t-43 44.5z" />
<glyph unicode="~" horiz-adv-x="919" d="M111 1174q33 43 28 59h29l-29 -88zM197 1319v88q16 6 28 6q27 0 54.5 -47t62.5 -47q10 63 86 63q16 0 54 -4t57 -4q23 0 36 4q43 0 54 -24q4 -10 5 -57.5t30 -63.5q20 -2 48.5 15.5t45.5 17.5q12 0 22 -4q-25 -18 -88 -117q-14 59 -108 59q-61 0 -95 -30q-66 45 -131 90 q-78 53 -161 55z" />
<glyph unicode="&#xa9;" horiz-adv-x="1460" d="M66 801q16 -2 30 -2q74 0 115 61l-59 58q74 -18 114 -130q31 -96 62 -190h-49q-29 -6 -39 -29v-59h-60q6 16 -28 59l88 117q-18 18 -113 33q-66 8 -61 82zM94 1065l86 86q18 -4 44 -57.5t44 -59.5q-14 -4 -26 -4q-23 0 -59 20.5t-58 20.5q-14 0 -31 -6zM291 461 q0 37 24.5 61.5t61.5 24.5q18 0 37 -8q18 -33 90 -95q53 -47 57 -108q35 41 29 57h28q-23 -104 -141 -104q-68 0 -121 47v29q37 -31 47 -31q39 0 41 45v74l-30 28q-35 -41 -29 -59h-88q-6 20 -6 39zM297 1298q2 0 31.5 30t29.5 48q0 23 -30 37q31 -8 63.5 43t54.5 51 q25 0 56 -34q20 29 80 28q12 0 40.5 -2t41.5 -2q74 0 73 62q0 14 -2 30h58q-2 -16 -2 -30q0 -61 73 -62q12 0 41 2t43 2q57 0 78 -28q25 10 43 10q33 0 58.5 -46t46.5 -53l-60 -57q111 -6 164 -78q33 -41 64.5 -150.5t62.5 -150.5l-29 30q-30 30 -49 30q-23 0 -37 -31 q-49 -8 -76 61q-20 57 -40 113l28 31q-109 78 -217 155q-131 92 -250 107q-41 -35 -57 -31l-60 60q-86 -92 -133 -125q-80 -57 -157 -50h-31zM383 883q2 160 2 151l88 60q-33 25 -33 36q0 8 35 28t27 52q43 78 135 78q41 0 70 -20q27 29 61 28q20 0 68.5 -15t72.5 -13 q68 -20 97 -97q35 -92 51 -106l-60 57l-28 -28l-60 88q-35 -35 -78 -35q-31 0 -92 27.5t-90 27.5q-33 0 -59 -20q25 -12 28 -39v-49q-88 -88 -88 -123q0 -29 31 -53h-59q0 37 2 73q-2 45 -43 45q-8 0 -47 -30q27 -20 33 -89t55 -86q41 35 59 29q8 -82 96 -149 q119 -90 136 -113l59 88q55 -33 88 -88q-74 0 -88 29l-88 -88l-57 59q-33 -12 -62 -12q-59 0 -125 53q-53 53 -106 104q-31 47 -31 140zM678 393q-6 0 123 -2q73 0 108 31q-41 -61 -84 -121q-49 -59 -118 -53zM909 772h176q-35 -41 -28 -57zM997 393v88q74 0 88 29v59 q16 -6 58 29v57q68 12 67 50q0 10 -7 39.5t-7 50.5q0 18 6 36q10 -25 62 -49q41 -19 84 -39q14 -35 14 -63q0 -49 -66.5 -107.5t-64.5 -119.5q-47 0 -49 -2q-27 -4 -39 -29v-29l-58 60q-35 -43 -28 -60h-60z" />
<glyph unicode="&#x2000;" horiz-adv-x="837" />
<glyph unicode="&#x2001;" horiz-adv-x="1675" />
<glyph unicode="&#x2002;" horiz-adv-x="837" />
<glyph unicode="&#x2003;" horiz-adv-x="1675" />
<glyph unicode="&#x2004;" horiz-adv-x="558" />
<glyph unicode="&#x2005;" horiz-adv-x="418" />
<glyph unicode="&#x2006;" horiz-adv-x="279" />
<glyph unicode="&#x2007;" horiz-adv-x="279" />
<glyph unicode="&#x2008;" horiz-adv-x="209" />
<glyph unicode="&#x2009;" horiz-adv-x="335" />
<glyph unicode="&#x200a;" horiz-adv-x="93" />
<glyph unicode="&#x202f;" horiz-adv-x="335" />
<glyph unicode="&#x205f;" horiz-adv-x="418" />
<glyph unicode="&#x25fc;" horiz-adv-x="1607" d="M0 0v1608h1608v-1608h-1608z" />
</font>
</defs>
</svg>
